<svg width="1563" height="900" viewBox="0 0 1563 900" fill="none" xmlns="http://www.w3.org/2000/svg">
<path d="M1602.68 408.153C1555.82 550.394 1454.81 706.199 1306.59 756.974C1082.36 833.833 1062.23 1018.16 655.067 1016.76C591.545 1016.42 532.537 1009.81 478.388 997.637C449.231 991.029 421.115 983.03 394.734 973.292C153.146 886.348 20.8972 679.072 2.15326 457.537C-22.8386 166.099 175.361 18.9893 304.139 -67.6075C433.263 -154.204 580.438 -475.899 980.656 -477.986C1041.75 -478.333 1102.84 -472.421 1162.54 -458.51C1298.61 -427.21 1438.49 -351.742 1522.49 -236.975C1528.74 -228.281 1534.99 -219.586 1540.54 -210.544C1653.7 -33.873 1666.54 214.44 1602.68 408.153Z" fill="#CBECF7"/>
</svg>
