<svg width="24" height="24" viewBox="0 0 24 24" fill="none" xmlns="http://www.w3.org/2000/svg">
<g clip-path="url(#clip0_31_1665)">
<path d="M4 8C4.3 7.4 4.6 6.9 5 6.4C6 5.1 7.3 4.2 8.8 3.6C9.6 3.3 10.4 3.1 11.1 3C11.2 3 11.3 3 11.3 3C11.7 3 12.1 3 12.5 3C12.7 3.1 12.8 3 13 3.1C14.2 3.2 15.2 3.6 16.3 4.2C16.9 4.5 17.4 4.9 17.9 5.4C18 5.5 18 5.5 17.9 5.5C17.1 6.3 16.3 7.1 15.5 7.9C15.4 8 15.4 8 15.3 7.9C14.5 7.2 13.6 6.8 12.5 6.7C10.1 6.3 7.8 7.9 7 10.1V10.2C7 10.2 6.9 10.2 6.9 10.1C5.9 9.5 4.9 8.7 4 8Z" fill="#E94335"/>
<path d="M6.9 13.7C7 14 7.1 14.3 7.3 14.5C8.1 15.9 9.3 16.9 10.9 17.2C12.3 17.5 13.7 17.3 14.9 16.5C14.9 16.5 15 16.5 15 16.4C15.6 16.9 16.2 17.4 16.9 17.8C17.2 18.1 17.5 18.3 17.9 18.6C17.4 19.1 16.8 19.5 16.1 19.8C15.1 20.3 14.1 20.6 13.1 20.7C11.7 20.9 10.3 20.7 8.9 20.2C7.4 19.6 6.1 18.7 5 17.5C4.6 17.2 4.3 16.6 4 16C4.5 15.6 5 15.2 5.6 14.8C6 14.4 6.5 14.1 6.9 13.7Z" fill="#34A753"/>
<path d="M17.9 18.8C17.6 18.5 17.3 18.3 16.9 18C16.3 17.5 15.7 17 15 16.6C15.3 16.4 15.5 16.2 15.7 16C16.2 15.4 16.6 14.8 16.7 14.1C16.7 14 16.7 14 16.6 14C15.1 14 13.5 14 12 14C11.9 14 11.9 14 11.9 13.9C11.9 12.9 11.9 11.8 11.9 10.8C11.9 10.7 11.9 10.7 12 10.7C14.7 10.7 17.5 10.7 20.2 10.7C20.3 10.7 20.3 10.7 20.3 10.8C20.4 11.3 20.4 11.8 20.4 12.3C20.4 14.5 19.8 16.5 18.5 18.2C18.4 18.3 18.2 18.6 17.9 18.8Z" fill="#4285F3"/>
<path d="M6.9 13.7C6.4 14.1 6 14.4 5.5 14.8C5 15.2 4.5 15.6 4 16C3.6 15.3 3.4 14.5 3.2 13.7C3 13 3 12.2 3 11.5C3.1 10.3 3.4 9.1 4 8C5 8.7 5.9 9.5 6.9 10.2C6.9 10.2 7 10.2 7 10.3C6.9 10.6 6.8 11 6.8 11.3C6.7 12.1 6.8 12.9 7 13.6C6.9 13.6 6.9 13.7 6.9 13.7Z" fill="#FABB05"/>
</g>
<defs>
<clipPath id="clip0_31_1665">
<rect width="17.6" height="18" fill="white" transform="translate(3 3)"/>
</clipPath>
</defs>
</svg>