<svg width="1716" height="900" viewBox="0 0 1716 900" fill="none" xmlns="http://www.w3.org/2000/svg">
<path d="M1755.68 408.153C1708.82 550.394 1607.81 706.199 1459.59 756.974C1235.36 833.833 1215.23 1018.16 808.067 1016.76C744.545 1016.42 685.537 1009.81 631.388 997.637C602.231 991.029 574.115 983.03 547.734 973.292C306.146 886.348 173.897 679.072 155.153 457.537C130.161 166.099 328.361 18.9893 457.139 -67.6075C586.263 -154.204 733.438 -475.899 1133.66 -477.986C1194.75 -478.333 1255.84 -472.421 1315.54 -458.51C1451.61 -427.21 1591.49 -351.742 1675.49 -236.975C1681.74 -228.281 1687.99 -219.586 1693.54 -210.544C1806.7 -33.873 1819.54 214.441 1755.68 408.153Z" fill="#CBECF7"/>
<g clip-path="url(#clip0_0_1)">
<path d="M38.1315 64.9305C37.9604 64.7988 37.8194 64.6332 37.7177 64.4445C37.6159 64.2558 37.5556 64.0483 37.5407 63.8352C37.5257 63.6222 37.5565 63.4085 37.6311 63.2079C37.7056 63.0073 37.8222 62.8243 37.9733 62.6708C38.1956 62.4439 38.3411 62.1549 38.3897 61.8436C38.4383 61.5323 38.3878 61.2139 38.2449 60.9319C38.1021 60.6499 37.874 60.4183 37.5919 60.2686C37.3098 60.119 36.9875 60.0587 36.6692 60.096C36.4534 60.1216 36.2345 60.1024 36.0268 60.0398C35.819 59.9771 35.6269 59.8723 35.4629 59.7322C35.2989 59.5921 35.1666 59.4197 35.0747 59.2263C34.9827 59.0328 34.933 58.8226 34.9289 58.6091C34.9252 58.2926 34.8213 57.9852 34.6316 57.7293C34.4419 57.4735 34.1759 57.2819 33.8705 57.1813C33.565 57.0807 33.2352 57.0759 32.9269 57.1677C32.6185 57.2594 32.3469 57.4432 32.1497 57.6935C32.0157 57.8616 31.8473 58.0003 31.6553 58.1005C31.4633 58.2007 31.252 58.2601 31.0352 58.275C30.8183 58.2898 30.6007 58.2597 30.3964 58.1867C30.1921 58.1137 30.0057 57.9993 29.8493 57.851C29.6189 57.6315 29.3248 57.4876 29.0077 57.4392C28.6906 57.3907 28.3659 57.4399 28.0785 57.5802C27.791 57.7205 27.5549 57.9448 27.4027 58.2223C27.2504 58.4999 27.1895 58.817 27.2282 59.1299C27.2543 59.3419 27.2348 59.5569 27.171 59.761C27.1072 59.9651 27.0006 60.1538 26.8579 60.3149C26.7153 60.476 26.5398 60.6059 26.3429 60.6963C26.146 60.7866 25.9319 60.8354 25.7146 60.8395C25.3931 60.8444 25.081 60.9472 24.8214 61.1336C24.5618 61.3201 24.3675 61.5811 24.2652 61.8806C24.163 62.1801 24.1578 62.5034 24.2505 62.8059C24.3431 63.1084 24.529 63.3753 24.7825 63.5696C24.9534 63.7014 25.0943 63.867 25.1961 64.0555C25.2979 64.2441 25.3583 64.4516 25.3734 64.6645C25.3885 64.8775 25.358 65.0912 25.2838 65.2918C25.2097 65.4924 25.0935 65.6756 24.9428 65.8294C24.7203 66.0559 24.5746 66.3445 24.5257 66.6556C24.4768 66.9667 24.5271 67.2851 24.6698 67.567C24.8124 67.8489 25.0404 68.0805 25.3224 68.23C25.6044 68.3795 25.9266 68.4396 26.2448 68.4021C26.4608 68.3764 26.6798 68.3957 26.8877 68.4584C27.0956 68.5212 27.2878 68.6262 27.4519 68.7665C27.6159 68.9069 27.7481 69.0795 27.84 69.2732C27.9318 69.4669 27.9812 69.6774 27.9851 69.8911C27.9892 70.2073 28.0935 70.5145 28.2833 70.77C28.4731 71.0256 28.7392 71.2167 29.0445 71.3171C29.3499 71.4175 29.6795 71.4221 29.9876 71.3303C30.2958 71.2384 30.5672 71.0547 30.7643 70.8046C30.8984 70.6366 31.067 70.4981 31.2591 70.3981C31.4511 70.2981 31.6624 70.2389 31.8793 70.2242C32.0962 70.2096 32.3138 70.2398 32.518 70.313C32.7222 70.3862 32.9084 70.5008 33.0647 70.6492C33.2954 70.8681 33.5894 71.0113 33.9064 71.0593C34.2233 71.1073 34.5477 71.0577 34.8347 70.9173C35.1218 70.7768 35.3576 70.5525 35.5096 70.2751C35.6616 69.9977 35.7224 69.6808 35.6836 69.3681C35.6575 69.1562 35.677 68.9414 35.7408 68.7374C35.8047 68.5334 35.9113 68.3448 36.054 68.1839C36.1967 68.0229 36.3722 67.8932 36.5691 67.8031C36.766 67.713 36.98 67.6645 37.1972 67.6607C37.519 67.6562 37.8313 67.5537 38.0913 67.3674C38.3512 67.1811 38.5458 66.9202 38.6484 66.6205C38.7509 66.3209 38.7562 65.9975 38.6637 65.6948C38.5711 65.392 38.3851 65.125 38.1315 64.9305ZM35.2731 62.6372C34.0759 63.9897 32.8794 65.3436 31.6836 66.6988C31.571 66.8243 31.4296 66.9215 31.271 66.9824C31.1563 67.0271 31.033 67.0468 30.9098 67.0403C30.7865 67.0338 30.6661 67.0011 30.5569 66.9446L30.4778 66.9068C30.1657 66.6001 29.8921 66.2641 29.6013 65.9407C29.1737 65.4661 28.7461 64.9886 28.3186 64.5084C28.2526 64.4452 28.2009 64.369 28.1668 64.2849C28.1327 64.2008 28.117 64.1106 28.1206 64.0201C28.1242 63.9296 28.1472 63.8409 28.1879 63.7597C28.2286 63.6785 28.2862 63.6066 28.357 63.5486C28.4451 63.4673 28.5493 63.4048 28.6632 63.365C28.777 63.3253 28.898 63.3091 29.0186 63.3176C29.1391 63.3261 29.2565 63.359 29.3634 63.4143C29.4704 63.4696 29.5645 63.5461 29.6398 63.6389C30.0674 64.1122 30.4871 64.5854 30.899 65.0586C30.9781 65.1489 30.9781 65.1489 31.0593 65.0586L33.9733 61.7509C34.1026 61.5923 34.2842 61.483 34.4868 61.4419C34.6894 61.4009 34.9003 61.4307 35.0829 61.5262C35.2016 61.5861 35.3019 61.6761 35.3733 61.7869C35.4448 61.8976 35.4847 62.0252 35.4891 62.1562C35.4818 62.3368 35.4064 62.5083 35.2774 62.6372H35.2731Z" fill="#71BDD3"/>
<path d="M37.0754 33V35.4887H41.9114V41.4447H44.4448V33H37.0754Z" fill="#71BDD3"/>
<path d="M7.36932 77V74.5113H2.5334V68.5532H0V77H7.36932Z" fill="#71BDD3"/>
<path d="M37.0754 77V74.5113H41.9114V68.5532H44.4448V77H37.0754Z" fill="#71BDD3"/>
<path d="M7.36932 33.6028V36.0914H2.5334V42.0495H0V33.6028H7.36932Z" fill="#71BDD3"/>
<path d="M18.7686 40.5038V42.9903H23.6045V48.9484H26.1379V40.5038H18.7686Z" fill="#248FBB"/>
<path d="M7.79053 58.4873H10.2192V53.6989H21.0711V45.5924H18.7686V51.1347H7.79053V58.4873Z" fill="#248FBB"/>
<path d="M12.6265 58.5524V56.0931H21.2636V58.4684L12.6265 58.5524Z" fill="#248FBB"/>
<path d="M23.6516 51.4413V56.2065H26.0845V53.8165H31.9424V51.4686L23.6516 51.4413Z" fill="#248FBB"/>
<path d="M15.6409 68.7255H8.34644V61.5598H15.6409V68.7255ZM10.0568 67.0454H13.9306V63.2399H10.0568V67.0454Z" fill="#71BDD3"/>
<path d="M15.6409 48.1945H8.34644V41.0288H15.6409V48.1945ZM10.0568 46.5144H13.9306V42.7089H10.0568V46.5144Z" fill="#71BDD3"/>
<path d="M36.5601 48.1819H29.2634V41.0162H36.5601V48.1819ZM30.9737 46.5018H34.8497V42.6963H30.9737V46.5018Z" fill="#71BDD3"/>
<path d="M18.8157 60.9004H21.2058V67.0076H23.6815V69.3555H18.8157V60.9004Z" fill="#248FBB"/>
<path d="M34.5334 56.2254H37.1139V51.5127H34.542L34.5334 56.2254Z" fill="#248FBB"/>
<path d="M62.7365 67.5725C59.9516 67.5725 57.6711 66.7114 55.8953 64.9893C54.1194 63.2672 53.2286 61.0607 53.2229 58.3697V57.4477H58.7365V58.0778C58.7365 59.3883 59.1 60.4383 59.8269 61.228C60.5537 62.0176 61.5236 62.4097 62.7365 62.4041C63.261 62.4233 63.7834 62.3286 64.2664 62.1268C64.7494 61.9249 65.1811 61.6209 65.5308 61.2364C66.2434 60.4579 66.5997 59.4079 66.5997 58.0862V41.6421H72.1133V58.3697C72.1133 61.0705 71.2518 63.2798 69.5286 64.9977C67.8055 66.7156 65.5414 67.5739 62.7365 67.5725Z" fill="#248FBB"/>
<path d="M97.6655 57.1663C97.6658 57.6868 97.6301 58.2068 97.5586 58.7225H82.4758C82.7038 60.0568 83.2475 61.081 84.107 61.795C84.9664 62.5091 86.0503 62.8654 87.3587 62.864C88.2297 62.8775 89.0896 62.6707 89.8558 62.2633C90.5733 61.8773 91.1659 61.3009 91.5661 60.6H97.2251C96.5641 62.6526 95.2455 64.4403 93.466 65.6968C91.6865 66.9533 89.5413 67.6112 87.3502 67.5725C85.5018 67.594 83.6816 67.1269 82.0802 66.22C80.5175 65.3338 79.2311 64.0447 78.3603 62.4923C77.4529 60.8873 76.9872 59.0777 77.0092 57.2419C76.9856 55.4 77.4474 53.5833 78.3496 51.9685C79.2154 50.4171 80.5004 49.1307 82.0631 48.2512C83.6945 47.3609 85.5315 46.8974 87.3977 46.9051C89.2639 46.9128 91.0968 47.3916 92.7205 48.2953C94.2672 49.181 95.5334 50.4706 96.3785 52.021C97.2399 53.6029 97.6825 55.3723 97.6655 57.1663ZM87.3587 51.4182C86.265 51.3872 85.1944 51.7318 84.3314 52.3927C83.4709 53.093 82.8697 54.0527 82.6211 55.1229H92.278C91.906 53.93 91.2967 53.0157 90.4501 52.3801C89.56 51.7253 88.4702 51.3862 87.3587 51.4182Z" fill="#248FBB"/>
<path d="M112.09 62.3159H114.54V67.0244H110.719C108.534 67.0244 106.808 66.402 105.539 65.1574C104.271 63.9127 103.637 62.2032 103.639 60.0288V51.6913H100.034V50.5593L107.908 42.3289H108.936V47.449H114.431V51.6955H109.026V59.3253C109.026 60.2801 109.291 61.0173 109.819 61.5367C110.348 62.0562 111.105 62.3159 112.09 62.3159Z" fill="#248FBB"/>
<path d="M151.378 67.0244H145.685L143.145 50.4564L135.431 66.9719H134.063L126.352 50.4753L123.81 67.0244H118.116L122.151 41.6421H127.754L134.745 57.1999L141.755 41.6421H147.378L151.378 67.0244Z" fill="#248FBB"/>
<path d="M172.468 47.4133H176.504V66.9887H172.271L171.801 65.2372C170.024 66.7806 167.723 67.6139 165.351 67.5725C163.48 67.5961 161.636 67.1324 160.006 66.2284C158.43 65.3519 157.132 64.062 156.259 62.5028C155.348 60.8801 154.882 59.0527 154.907 57.2C154.882 55.3592 155.348 53.544 156.259 51.9349C157.13 50.3864 158.423 49.1061 159.991 48.2366C161.622 47.3365 163.466 46.8751 165.336 46.8988C167.746 46.854 170.084 47.708 171.878 49.2887L172.468 47.4133ZM161.901 61.0327C162.406 61.5364 163.011 61.9323 163.679 62.1957C164.347 62.4591 165.063 62.5844 165.783 62.5637C167.351 62.5637 168.646 62.0562 169.667 61.0411C170.689 60.026 171.203 58.7457 171.207 57.2C171.207 55.6599 170.694 54.3802 169.667 53.3609C168.641 52.3416 167.346 51.8341 165.783 51.8383C165.063 51.8176 164.347 51.9429 163.679 52.2063C163.011 52.4697 162.406 52.8656 161.901 53.3693C160.912 54.4087 160.361 55.7783 160.361 57.201C160.361 58.6237 160.912 59.9933 161.901 61.0327Z" fill="#248FBB"/>
<path d="M192.55 62.3158H195V67.0243H191.181C188.994 67.0243 187.267 66.402 186.001 65.1573C184.736 63.9126 184.101 62.2045 184.098 60.033V51.6954H180.496V50.5634L188.37 42.333H189.396V47.4489H194.893V51.6954H189.494V59.3252C189.494 60.2801 189.759 61.0172 190.288 61.5367C190.816 62.0561 191.57 62.3158 192.55 62.3158Z" fill="#248FBB"/>
<path d="M209.55 62.3159H212V67.0244H208.182C205.994 67.0244 204.267 66.402 203 65.1574C201.732 63.9127 201.099 62.2032 201.099 60.0288V51.6913H197.497V50.5593L205.37 42.3289H206.397V47.449H211.893V51.6955H206.486V59.3253C206.486 60.2801 206.751 61.0173 207.28 61.5367C207.808 62.0562 208.565 62.3159 209.55 62.3159Z" fill="#248FBB"/>
</g>
<defs>
<clipPath id="clip0_0_1">
<rect width="212" height="44" fill="white" transform="translate(0 33)"/>
</clipPath>
</defs>
</svg>
