<svg width="24" height="24" viewBox="0 0 24 24" fill="none" xmlns="http://www.w3.org/2000/svg">
<g clip-path="url(#clip0_32_5738)">
<path d="M21.5 11.2C21 10.2 20.3 9.3 19.6 8.5C19.3 8.2 18.9 8.1 18.5 8.4C18.2 8.7 18.1 9.1 18.4 9.5C19.1 10.3 19.6 11.1 20.1 12C20.1 12.1 20.1 12.2 20.1 12.2C18.1 15.8 14.8 18.3 11.9 18.3C11.2 18.3 10.4 18.2 9.7 17.9C9.3 17.8 8.9 17.9 8.7 18.3C8.6 18.7 8.7 19.1 9.1 19.3C10 19.7 11 19.8 11.9 19.8C15.9 19.8 19.6 16.3 21.4 12.9C21.8 12.3 21.8 11.7 21.5 11.2Z" fill="#323232"/>
<path d="M19.5 5.5C19.8 5.2 19.8 4.7 19.5 4.4C19.2 4.1 18.7 4.1 18.4 4.4L17 6C15.4 4.9 13.7 4.3 12 4.3C8 4.3 4.3 7.8 2.5 11.2C2.2 11.7 2.2 12.3 2.5 12.8C3.4 14.4 4.6 15.9 5.9 17.1L4.5 18.5C4.2 18.8 4.2 19.3 4.5 19.6C4.6 19.7 4.8 19.8 5 19.8C5.2 19.8 5.4 19.7 5.5 19.6L19.5 5.5ZM10.3 10.3C11 9.6 12.2 9.4 13.1 9.9L9.9 13.1C9.4 12.2 9.6 11.1 10.3 10.3ZM3.8 12.1C3.8 12 3.8 11.9 3.8 11.9C5.8 8.3 9.1 5.8 12 5.8C13.3 5.8 14.6 6.3 15.9 7.1L14.2 8.8C12.7 7.8 10.6 7.9 9.3 9.3C8 10.6 7.8 12.7 8.8 14.2L6.9 16C5.7 15 4.6 13.6 3.8 12.1Z" fill="#323232"/>
</g>
<defs>
<clipPath id="clip0_32_5738">
<rect width="24" height="24" fill="white"/>
</clipPath>
</defs>
</svg>
