<svg width="519" height="513" viewBox="0 0 519 513" fill="none" xmlns="http://www.w3.org/2000/svg">
<g clip-path="url(#clip0_30_1462)">
<path d="M492.657 131.898C490.001 110.955 484.798 90.9029 473.841 72.7446C453.585 38.7674 417.17 18.2697 380.202 7.90941C349.21 -0.779841 315.783 -3.34206 284.902 5.6814C250.922 15.5961 222.476 38.3218 191.927 56.1459C169.679 69.0684 146.104 79.8742 122.085 89.1205C102.605 96.5843 77.9219 100.818 61.8727 115.077C52.0218 123.766 43.3884 133.904 35.9725 144.709C6.19833 188.601 -3.54191 244.524 1.10684 296.771C4.31669 333.199 14.2783 369.961 36.5259 398.814C67.8496 439.253 121.532 459.193 172.225 454.18C229.781 448.499 284.238 413.853 341.462 422.208C369.908 426.33 397.136 441.035 425.804 438.361C454.028 435.688 478.157 416.081 495.203 393.244C508.817 374.975 518.004 352.806 518.779 329.746C519.664 304.792 508.485 282.066 502.84 258.227C493.1 216.563 498.081 173.896 492.657 131.898Z" fill="#CBECF7"/>
<path opacity="0.7" d="M492.657 131.898C490.001 110.955 484.798 90.9029 473.841 72.7446C453.585 38.7674 417.17 18.2697 380.202 7.90941C349.21 -0.779841 315.783 -3.34206 284.902 5.6814C250.922 15.5961 222.476 38.3218 191.927 56.1459C169.679 69.0684 146.104 79.8742 122.085 89.1205C102.605 96.5843 77.9219 100.818 61.8727 115.077C52.0218 123.766 43.3884 133.904 35.9725 144.709C6.19833 188.601 -3.54191 244.524 1.10684 296.771C4.31669 333.199 14.2783 369.961 36.5259 398.814C67.8496 439.253 121.532 459.193 172.225 454.18C229.781 448.499 284.238 413.853 341.462 422.208C369.908 426.33 397.136 441.035 425.804 438.361C454.028 435.688 478.157 416.081 495.203 393.244C508.817 374.975 518.004 352.806 518.779 329.746C519.664 304.792 508.485 282.066 502.84 258.227C493.1 216.563 498.081 173.896 492.657 131.898Z" fill="#CBECF7"/>
<path d="M355.106 329.877H516.595V323.75H355.106V329.877Z" stroke="#A6E0F2" stroke-miterlimit="10" stroke-linecap="round" stroke-linejoin="round"/>
<path d="M362.522 495.547H509.068V330.006H362.522V495.547Z" stroke="#A6E0F2" stroke-miterlimit="10" stroke-linecap="round" stroke-linejoin="round"/>
<path d="M367.894 373.642H504.036V337.771H367.894V373.642Z" stroke="#A6E0F2" stroke-miterlimit="10" stroke-linecap="round" stroke-linejoin="round"/>
<path d="M429.351 359.048H442.965V352.476H429.351V359.048Z" fill="#A6E0F2" stroke="#A6E0F2" stroke-miterlimit="10" stroke-linecap="round" stroke-linejoin="round"/>
<path d="M367.894 419.044H504.036V383.173H367.894V419.044Z" stroke="#A6E0F2" stroke-miterlimit="10" stroke-linecap="round" stroke-linejoin="round"/>
<path d="M429.351 404.339H442.965V397.766H429.351V404.339Z" fill="#A6E0F2" stroke="#A6E0F2" stroke-miterlimit="10" stroke-linecap="round" stroke-linejoin="round"/>
<path d="M367.894 464.643H504.036V428.772H367.894V464.643Z" stroke="#A6E0F2" stroke-miterlimit="10" stroke-linecap="round" stroke-linejoin="round"/>
<path d="M429.351 449.938H442.965V443.365H429.351V449.938Z" fill="#A6E0F2" stroke="#A6E0F2" stroke-miterlimit="10" stroke-linecap="round" stroke-linejoin="round"/>
<path d="M442.517 251.32C444.177 252.1 448.162 251.988 448.162 251.988C448.162 251.988 447.276 249.315 447.166 249.203C446.28 247.309 443.513 244.302 441.189 244.524C439.528 244.747 438.643 246.418 438.975 247.978C439.528 249.537 441.189 250.651 442.517 251.32Z" fill="#A6E0F2"/>
<path d="M483.36 252.211C483.36 252.211 484.134 249.537 484.134 249.315C484.466 247.309 483.802 243.188 481.699 242.185C480.26 241.405 478.489 242.296 478.047 243.856C477.493 245.416 478.157 247.309 479.043 248.535C479.928 250.094 483.36 252.211 483.36 252.211Z" fill="#A6E0F2"/>
<path d="M495.424 237.506C493.1 237.283 490.443 240.403 489.558 242.296C489.447 242.408 488.672 245.193 488.672 245.193C488.23 245.638 487.787 246.195 487.344 246.864C486.459 247.978 485.463 249.203 484.466 250.651C483.47 252.1 482.363 253.659 481.478 255.442C480.482 257.224 479.596 259.118 478.932 261.235C478.932 261.235 478.932 261.235 478.932 261.346C478.932 260.678 478.932 258.784 478.932 258.672C478.711 256.667 476.94 252.768 474.726 252.434C473.066 252.1 471.738 253.436 471.627 254.996C471.516 256.667 472.623 258.227 473.841 259.229C475.169 260.343 478.711 261.569 479.043 261.569C478.379 263.574 477.936 265.691 477.493 267.807C477.272 269.033 477.051 270.258 476.94 271.595C476.94 271.038 476.94 270.481 476.94 270.369C476.718 268.364 474.948 264.465 472.734 264.131C471.074 263.797 469.745 265.134 469.635 266.693C469.524 268.364 470.631 269.924 471.848 271.038C472.955 272.04 476.054 273.154 476.829 273.377C476.718 273.823 476.719 274.38 476.608 274.825C476.386 277.165 476.054 279.504 475.722 281.732C475.612 282.512 475.501 283.292 475.28 284.072C475.28 283.515 475.28 283.069 475.28 283.069C475.058 281.064 473.287 277.165 471.074 276.831C469.413 276.496 468.085 277.833 467.974 279.393C467.864 281.064 468.971 282.623 470.188 283.626C471.295 284.629 474.062 285.631 475.058 285.854C474.837 286.634 474.726 287.414 474.505 288.193C474.394 288.75 474.283 289.196 474.062 289.753C473.951 290.31 473.73 290.756 473.619 291.313C473.287 292.315 472.955 293.207 472.512 294.209C472.291 294.878 472.07 295.435 471.738 296.103C471.848 295.323 472.07 293.764 472.07 293.652C472.07 292.315 471.627 290.087 470.631 288.528C470.631 288.305 470.631 288.082 470.631 287.971C470.409 286.411 468.86 285.186 467.31 285.631C465.097 286.188 463.658 290.199 463.547 292.204C463.547 292.315 463.658 293.652 463.658 294.543C463.547 294.098 463.436 293.541 463.326 293.095C463.104 292.093 462.883 291.09 462.551 290.087C462.44 289.53 462.219 289.085 462.108 288.528C461.997 287.971 461.776 287.525 461.555 286.968C461.112 285.743 460.559 284.517 460.116 283.403C461.001 283.18 463.99 282.401 465.207 281.509C466.425 280.618 467.753 279.059 467.753 277.388C467.753 275.828 466.425 274.38 464.765 274.603C462.44 274.825 460.448 278.502 460.116 280.507C460.116 280.618 460.005 282.066 459.894 282.958C459.562 282.289 459.23 281.509 458.898 280.841C457.902 278.724 456.795 276.719 455.688 274.603C455.356 273.934 455.024 273.377 454.692 272.709C455.024 272.597 458.677 271.818 460.005 270.704C461.223 269.812 462.551 268.253 462.551 266.582C462.551 265.022 461.223 263.574 459.562 263.797C457.238 264.02 455.246 267.696 454.914 269.701C454.914 269.812 454.692 272.04 454.692 272.486C453.917 271.038 453.253 269.701 452.589 268.253C451.704 266.359 450.929 264.354 450.376 262.46C450.486 262.46 454.36 261.569 455.688 260.455C456.906 259.564 458.234 258.004 458.234 256.333C458.234 254.773 456.906 253.325 455.246 253.548C452.921 253.771 450.929 257.447 450.597 259.452C450.597 259.564 450.376 261.235 450.376 262.014C450.265 262.014 450.265 262.014 450.265 262.014C449.601 259.898 449.269 257.781 449.047 255.776C448.937 254.662 448.826 253.548 448.826 252.434C449.601 252.322 452.811 251.877 454.25 251.097C455.578 250.317 457.017 248.869 457.127 247.309C457.238 245.75 456.131 244.19 454.471 244.19C452.147 244.19 449.822 247.644 449.158 249.537C449.158 249.649 448.937 250.763 448.715 251.543C448.715 251.097 448.715 250.54 448.715 250.094C448.715 248.312 448.826 246.752 448.937 245.304C449.047 244.524 449.047 243.745 449.158 243.076C449.822 242.631 452.479 240.737 453.253 239.4C454.028 238.063 454.692 236.169 454.139 234.61C453.585 233.162 451.814 232.27 450.376 233.05C448.383 234.164 447.83 238.286 448.162 240.291C448.162 240.514 448.937 243.188 449.047 243.188C448.937 243.856 448.826 244.524 448.826 245.304C448.715 246.752 448.494 248.312 448.494 250.094C448.494 251.877 448.494 253.771 448.605 255.776C448.826 257.781 449.047 259.898 449.601 262.014C449.601 262.014 449.601 262.014 449.601 262.126C449.269 261.569 448.162 260.009 448.051 259.898C446.723 258.338 443.181 256.11 441.078 257.001C439.528 257.67 439.086 259.452 439.861 260.9C440.635 262.349 442.517 263.017 444.067 263.24C445.727 263.463 449.379 262.46 449.711 262.349C450.265 264.354 451.04 266.47 451.925 268.476C452.368 269.59 452.921 270.815 453.475 271.929C453.143 271.483 452.811 271.038 452.811 270.926C451.482 269.367 447.94 267.139 445.837 268.03C444.288 268.698 443.845 270.481 444.62 271.929C445.395 273.377 447.276 274.046 448.826 274.268C450.376 274.491 453.475 273.711 454.25 273.377C454.471 273.823 454.692 274.268 454.914 274.714C455.91 276.831 457.017 278.836 458.013 280.952C458.345 281.732 458.677 282.401 459.009 283.18C458.677 282.735 458.456 282.401 458.456 282.289C457.127 280.73 453.585 278.502 451.482 279.393C449.933 280.061 449.49 281.844 450.265 283.292C451.04 284.74 452.921 285.408 454.471 285.631C455.91 285.854 458.788 285.074 459.784 284.851C460.116 285.631 460.337 286.411 460.669 287.079C460.78 287.636 461.001 288.082 461.112 288.639C461.223 289.196 461.444 289.642 461.555 290.199C461.776 291.201 461.997 292.204 462.219 293.207C462.33 293.875 462.551 294.543 462.662 295.212C462.33 294.432 461.665 293.095 461.555 292.984C460.448 291.201 457.349 288.528 455.135 289.085C453.475 289.53 452.811 291.201 453.364 292.761C453.917 294.321 455.688 295.323 457.127 295.769C458.788 296.214 462.33 295.769 462.772 295.769C462.994 296.883 463.215 297.885 463.326 298.888C463.658 301.116 463.99 303.01 464.211 304.681H455.135V323.842H478.932V304.681H469.745C470.299 303.344 470.963 301.784 471.627 300.113C472.07 299.111 472.512 297.997 472.955 296.883C473.398 296.994 476.94 297.663 478.6 297.328C480.15 296.994 481.921 296.103 482.585 294.655C483.249 293.207 482.695 291.424 481.035 290.867C478.822 290.087 475.501 292.65 474.283 294.321C474.173 294.432 473.509 295.546 473.177 296.326C473.398 295.88 473.509 295.435 473.73 294.878C474.062 293.875 474.394 292.984 474.726 291.87C474.837 291.313 475.058 290.867 475.169 290.31C475.28 289.753 475.39 289.196 475.612 288.75C475.944 287.525 476.165 286.188 476.386 284.963C477.272 285.297 480.15 286.3 481.699 286.188C483.249 286.077 485.131 285.52 486.016 284.183C486.901 282.846 486.569 280.952 485.131 280.173C483.138 279.059 479.375 281.064 477.936 282.512C477.825 282.623 476.94 283.737 476.386 284.406C476.497 283.626 476.608 282.846 476.719 282.066C477.051 279.727 477.272 277.388 477.493 275.16C477.604 274.491 477.604 273.711 477.715 273.043C478.047 273.154 481.478 274.491 483.249 274.38C484.798 274.268 486.68 273.711 487.566 272.375C488.451 271.038 488.119 269.144 486.68 268.364C484.688 267.25 480.925 269.255 479.486 270.704C479.375 270.815 478.047 272.486 477.715 272.932C477.825 271.372 478.047 269.812 478.268 268.253C478.6 266.136 479.043 264.131 479.596 262.126C479.707 262.126 483.36 263.574 485.131 263.463C486.68 263.351 488.562 262.794 489.447 261.457C490.333 260.121 490.001 258.227 488.562 257.447C486.569 256.333 482.806 258.338 481.367 259.786C481.257 259.898 480.26 261.123 479.818 261.792C479.707 261.792 479.818 261.792 479.707 261.68C480.371 259.564 481.257 257.67 482.142 255.887C482.695 254.885 483.249 253.882 483.802 252.991C484.466 253.325 487.455 254.773 489.004 254.885C490.554 254.996 492.546 254.55 493.543 253.325C494.539 252.1 494.428 250.206 493.1 249.315C491.218 247.978 487.344 249.537 485.684 250.874C485.573 250.986 484.798 251.765 484.245 252.322C484.466 251.877 484.798 251.431 485.02 251.097C486.016 249.649 486.901 248.312 487.787 247.198C488.34 246.53 488.783 245.973 489.226 245.527C490.001 245.527 493.321 245.416 494.76 244.747C496.199 244.079 497.749 242.853 498.081 241.294C498.081 239.289 497.084 237.618 495.424 237.506ZM470.077 299.334C469.303 301.227 468.417 302.898 467.753 304.458H465.318C465.097 302.787 464.765 300.67 464.211 298.442C463.99 297.328 463.768 296.214 463.436 294.989C463.658 294.878 465.207 294.209 466.536 293.541C467.753 294.878 470.742 296.326 471.074 296.549C470.963 297.44 470.52 298.442 470.077 299.334Z" fill="#A6E0F2"/>
<path d="M15.8279 331.751L28.6673 455.629" stroke="#A6E0F2" stroke-width="2" stroke-miterlimit="10"/>
<path d="M26.675 431.9L20.8087 425.662" stroke="#A6E0F2" stroke-width="2" stroke-miterlimit="10"/>
<path d="M22.5796 427.556C22.5796 427.556 22.801 424.771 20.2553 422.543C18.8164 421.206 10.8471 417.864 10.183 420.649C9.29749 423.768 17.3775 429.672 22.5796 427.556Z" fill="#CBECF7" stroke="#A6E0F2" stroke-miterlimit="10"/>
<path d="M22.5796 427.556L15.0531 422.877" stroke="#A6E0F2" stroke-width="0.5" stroke-miterlimit="10"/>
<path d="M28.1139 445.937L22.2476 439.81" stroke="#A6E0F2" stroke-width="2" stroke-miterlimit="10"/>
<path d="M24.0185 441.592C24.0185 441.592 24.2399 438.807 21.6942 436.579C20.2553 435.242 12.286 431.9 11.6219 434.685C10.8471 437.805 18.8164 443.82 24.0185 441.592Z" fill="#CBECF7" stroke="#A6E0F2" stroke-miterlimit="10"/>
<path d="M24.0185 441.592L16.6027 436.913" stroke="#A6E0F2" stroke-width="0.5" stroke-miterlimit="10"/>
<path d="M23.0224 397.478L17.2668 391.35" stroke="#A6E0F2" stroke-width="2" stroke-miterlimit="10"/>
<path d="M19.0377 393.244C19.0377 393.244 19.2591 390.459 16.7134 388.231C15.2745 386.894 7.30517 383.552 6.64107 386.337C5.75559 389.345 13.8356 395.361 19.0377 393.244Z" fill="#CBECF7" stroke="#A6E0F2" stroke-miterlimit="10"/>
<path d="M19.0378 393.244L11.5112 388.454" stroke="#A6E0F2" stroke-width="0.5" stroke-miterlimit="10"/>
<path d="M24.572 411.625L18.7057 405.387" stroke="#A6E0F2" stroke-width="2" stroke-miterlimit="10"/>
<path d="M20.4766 407.281C20.4766 407.281 20.698 404.496 18.1523 402.268C16.7134 400.931 8.74408 397.589 8.07997 400.374C7.19449 403.493 15.2745 409.397 20.4766 407.281Z" fill="#CBECF7" stroke="#A6E0F2" stroke-miterlimit="10"/>
<path d="M20.4767 407.281L12.9501 402.602" stroke="#A6E0F2" stroke-width="0.5" stroke-miterlimit="10"/>
<path d="M20.698 374.64L14.8317 368.513" stroke="#A6E0F2" stroke-width="2" stroke-miterlimit="10"/>
<path d="M16.6027 370.296C16.6027 370.296 16.824 367.511 14.2783 365.283C12.8394 363.946 4.87011 360.604 4.206 363.389C3.43121 366.508 11.5112 372.412 16.6027 370.296Z" fill="#CBECF7" stroke="#A6E0F2" stroke-miterlimit="10"/>
<path d="M16.6027 370.296L9.1868 365.617" stroke="#A6E0F2" stroke-width="0.5" stroke-miterlimit="10"/>
<path d="M18.263 351.692L12.5074 345.453" stroke="#A6E0F2" stroke-width="2" stroke-miterlimit="10"/>
<path d="M14.2783 347.347C14.2783 347.347 14.4997 344.562 11.9539 342.334C10.515 340.997 2.54574 337.655 1.88164 340.44C0.99616 343.56 9.07613 349.464 14.2783 347.347Z" fill="#CBECF7" stroke="#A6E0F2" stroke-miterlimit="10"/>
<path d="M14.2783 347.347L6.75177 342.668" stroke="#A6E0F2" stroke-width="0.5" stroke-miterlimit="10"/>
<path d="M25.6788 423.545L30.1062 416.304" stroke="#A6E0F2" stroke-width="2" stroke-miterlimit="10"/>
<path d="M28.778 418.421C28.778 418.421 28.0032 415.747 29.9955 413.074C31.213 411.403 38.1862 406.612 39.5144 409.175C40.8426 411.96 34.2015 419.535 28.778 418.421Z" fill="#CBECF7" stroke="#A6E0F2" stroke-miterlimit="10"/>
<path d="M28.778 418.421L35.4191 411.96" stroke="#A6E0F2" stroke-width="0.5" stroke-miterlimit="10"/>
<path d="M21.8049 386.449L26.2323 379.208" stroke="#A6E0F2" stroke-width="2" stroke-miterlimit="10"/>
<path d="M24.904 381.436C24.904 381.436 24.1292 378.762 26.1216 376.089C27.3391 374.418 34.3122 369.627 35.6404 372.19C37.0793 374.975 30.4383 382.438 24.904 381.436Z" fill="#CBECF7" stroke="#A6E0F2" stroke-miterlimit="10"/>
<path d="M24.904 381.436L31.6558 374.975" stroke="#A6E0F2" stroke-width="0.5" stroke-miterlimit="10"/>
<path d="M20.1446 370.184L24.572 362.943" stroke="#A6E0F2" stroke-width="2" stroke-miterlimit="10"/>
<path d="M23.2438 365.171C23.2438 365.171 22.469 362.498 24.4613 359.824C25.6788 358.153 32.6519 353.363 33.9802 355.925C35.3084 358.599 28.6673 366.174 23.2438 365.171Z" fill="#CBECF7" stroke="#A6E0F2" stroke-miterlimit="10"/>
<path d="M23.2438 365.171L29.8848 358.71" stroke="#A6E0F2" stroke-width="0.5" stroke-miterlimit="10"/>
<path d="M17.5988 346.345L22.0262 339.104" stroke="#A6E0F2" stroke-width="2" stroke-miterlimit="10"/>
<path d="M20.698 341.22C20.698 341.22 19.9232 338.547 21.9155 335.873C23.1331 334.202 30.1062 329.412 31.4344 331.974C32.8733 334.759 26.2322 342.223 20.698 341.22Z" fill="#CBECF7" stroke="#A6E0F2" stroke-miterlimit="10"/>
<path d="M20.698 341.22L27.4498 334.759" stroke="#A6E0F2" stroke-width="0.5" stroke-miterlimit="10"/>
<path d="M15.7172 331.083C15.7172 331.083 14.9424 328.409 16.9347 325.735C18.1523 324.064 25.1254 319.274 26.4536 321.836C27.8925 324.621 21.2514 332.085 15.7172 331.083Z" fill="#CBECF7" stroke="#A6E0F2" stroke-miterlimit="10"/>
<path d="M15.7172 331.083L22.469 324.621" stroke="#A6E0F2" stroke-width="0.5" stroke-miterlimit="10"/>
<path d="M16.1599 331.417C16.1599 331.417 13.5035 331.863 10.9578 329.635C9.51886 328.298 5.42353 320.722 8.07996 319.72C10.9578 318.494 17.7095 325.958 16.1599 331.417Z" fill="#CBECF7" stroke="#A6E0F2" stroke-miterlimit="10"/>
<path d="M16.1599 331.417L10.4043 323.953" stroke="#A6E0F2" stroke-width="0.5" stroke-miterlimit="10"/>
<path d="M49.6974 348.795L36.9687 472.673" stroke="#A6E0F2" stroke-width="2" stroke-miterlimit="10"/>
<path d="M39.7358 449.056L35.3084 441.815" stroke="#A6E0F2" stroke-width="2" stroke-miterlimit="10"/>
<path d="M36.7473 443.932C36.7473 443.932 37.5221 441.258 35.5297 438.584C34.3122 436.913 27.3391 432.123 26.0109 434.685C24.572 437.47 31.2131 444.934 36.7473 443.932Z" fill="#CBECF7" stroke="#A6E0F2" stroke-miterlimit="10"/>
<path d="M36.7473 443.932L30.3276 437.805" stroke="#A6E0F2" stroke-width="0.5" stroke-miterlimit="10"/>
<path d="M43.2777 414.633L38.8503 407.392" stroke="#A6E0F2" stroke-width="2" stroke-miterlimit="10"/>
<path d="M40.2892 409.62C40.2892 409.62 41.064 406.947 39.0716 404.273C37.8541 402.602 30.881 397.812 29.5528 400.374C28.1139 403.048 34.755 410.623 40.2892 409.62Z" fill="#CBECF7" stroke="#A6E0F2" stroke-miterlimit="10"/>
<path d="M40.2892 409.62L33.8695 403.493" stroke="#A6E0F2" stroke-width="0.5" stroke-miterlimit="10"/>
<path d="M41.8388 428.781L37.4114 421.429" stroke="#A6E0F2" stroke-width="2" stroke-miterlimit="10"/>
<path d="M38.7396 423.657C38.7396 423.657 39.5144 420.983 37.5221 418.309C36.3046 416.638 29.3314 411.848 28.0032 414.41C26.675 417.195 33.3161 424.659 38.7396 423.657Z" fill="#CBECF7" stroke="#A6E0F2" stroke-miterlimit="10"/>
<path d="M38.7396 423.657L32.4306 417.53" stroke="#A6E0F2" stroke-width="0.5" stroke-miterlimit="10"/>
<path d="M45.7127 391.796L41.2854 384.555" stroke="#A6E0F2" stroke-width="2" stroke-miterlimit="10"/>
<path d="M42.6136 386.672C42.6136 386.672 43.3884 383.998 41.396 381.324C40.1785 379.653 33.2054 374.863 31.8772 377.425C30.4383 380.21 37.0793 387.674 42.6136 386.672Z" fill="#CBECF7" stroke="#A6E0F2" stroke-miterlimit="10"/>
<path d="M42.6136 386.672L36.1939 380.545" stroke="#A6E0F2" stroke-width="0.5" stroke-miterlimit="10"/>
<path d="M48.0371 368.848L43.6097 361.607" stroke="#A6E0F2" stroke-width="2" stroke-miterlimit="10"/>
<path d="M44.9379 363.723C44.9379 363.723 45.7127 361.05 43.7204 358.376C42.5029 356.705 35.5297 351.915 34.2015 354.477C32.7626 357.262 39.5144 364.726 44.9379 363.723Z" fill="#CBECF7" stroke="#A6E0F2" stroke-miterlimit="10"/>
<path d="M44.9379 363.723L38.6289 357.596" stroke="#A6E0F2" stroke-width="0.5" stroke-miterlimit="10"/>
<path d="M40.5106 440.701L46.3768 434.463" stroke="#A6E0F2" stroke-width="2" stroke-miterlimit="10"/>
<path d="M44.6059 436.356C44.6059 436.356 44.3845 433.571 46.9303 431.343C48.3692 430.007 56.2278 426.664 57.0026 429.449C57.7774 432.457 49.8081 438.473 44.6059 436.356Z" fill="#CBECF7" stroke="#A6E0F2" stroke-miterlimit="10"/>
<path d="M44.6059 436.356L52.4645 431.343" stroke="#A6E0F2" stroke-width="0.5" stroke-miterlimit="10"/>
<path d="M44.3845 403.605L50.1401 397.478" stroke="#A6E0F2" stroke-width="2" stroke-miterlimit="10"/>
<path d="M48.3692 399.26C48.3692 399.26 48.1478 396.475 50.6935 394.247C52.1324 392.91 59.991 389.568 60.7658 392.353C61.6513 395.472 53.5713 401.377 48.3692 399.26Z" fill="#CBECF7" stroke="#A6E0F2" stroke-miterlimit="10"/>
<path d="M48.3692 399.26L56.3385 394.358" stroke="#A6E0F2" stroke-width="0.5" stroke-miterlimit="10"/>
<path d="M46.0448 387.34L51.8004 381.102" stroke="#A6E0F2" stroke-width="2" stroke-miterlimit="10"/>
<path d="M50.0294 382.995C50.0294 382.995 49.8081 380.21 52.3538 377.982C53.7927 376.646 61.6513 373.304 62.4261 376.089C63.3116 379.208 55.2316 385.112 50.0294 382.995Z" fill="#CBECF7" stroke="#A6E0F2" stroke-miterlimit="10"/>
<path d="M50.0294 382.995L57.9987 378.094" stroke="#A6E0F2" stroke-width="0.5" stroke-miterlimit="10"/>
<path d="M48.4798 363.5L54.3461 357.262" stroke="#A6E0F2" stroke-width="2" stroke-miterlimit="10"/>
<path d="M52.5752 359.156C52.5752 359.156 52.3538 356.371 54.8995 354.143C56.3384 352.806 64.1971 349.464 64.9718 352.249C65.7466 355.257 57.6667 361.272 52.5752 359.156Z" fill="#CBECF7" stroke="#A6E0F2" stroke-miterlimit="10"/>
<path d="M52.5752 359.156L60.4338 354.143" stroke="#A6E0F2" stroke-width="0.5" stroke-miterlimit="10"/>
<path d="M49.8081 348.127C49.8081 348.127 49.5867 345.342 52.1324 343.114C53.5713 341.777 61.4299 338.435 62.2047 341.22C62.9795 344.339 54.8995 350.244 49.8081 348.127Z" fill="#CBECF7" stroke="#A6E0F2" stroke-miterlimit="10"/>
<path d="M49.8081 348.127L57.6667 343.225" stroke="#A6E0F2" stroke-width="0.5" stroke-miterlimit="10"/>
<path d="M50.0294 348.461C50.0294 348.461 47.2623 348.35 45.3807 345.676C44.1631 344.005 41.7281 335.873 44.6059 335.316C47.705 334.87 52.6859 343.56 50.0294 348.461Z" fill="#CBECF7" stroke="#A6E0F2" stroke-miterlimit="10"/>
<path d="M50.0294 348.461L46.0448 339.995" stroke="#A6E0F2" stroke-width="0.5" stroke-miterlimit="10"/>
<path d="M35.087 298.442V454.96" stroke="#A6E0F2" stroke-width="2" stroke-miterlimit="10"/>
<path d="M35.1977 431.455L30.1062 424.659" stroke="#A6E0F2" stroke-width="2" stroke-miterlimit="10"/>
<path d="M31.6558 426.665C31.6558 426.665 32.0985 423.991 29.8848 421.429C28.5566 419.98 21.0301 415.859 20.0339 418.532C18.9271 421.54 26.2322 428.336 31.6558 426.665Z" fill="#CBECF7" stroke="#A6E0F2" stroke-miterlimit="10"/>
<path d="M31.6558 426.665L24.6827 421.206" stroke="#A6E0F2" stroke-width="0.5" stroke-miterlimit="10"/>
<path d="M35.1977 402.045L30.1062 395.25" stroke="#A6E0F2" stroke-width="2" stroke-miterlimit="10"/>
<path d="M31.6558 397.255C31.6558 397.255 32.0985 394.581 29.8848 392.019C28.5566 390.571 21.0301 386.449 20.0339 389.122C18.9271 392.13 26.2322 398.814 31.6558 397.255Z" fill="#CBECF7" stroke="#A6E0F2" stroke-miterlimit="10"/>
<path d="M31.6558 397.255L24.6827 391.796" stroke="#A6E0F2" stroke-width="0.5" stroke-miterlimit="10"/>
<path d="M35.1977 367.511L30.1062 360.715" stroke="#A6E0F2" stroke-width="2" stroke-miterlimit="10"/>
<path d="M31.6558 362.721C31.6558 362.721 32.0985 360.047 29.8848 357.485C28.5566 356.036 21.0301 351.915 20.0339 354.588C18.9271 357.596 26.2322 364.28 31.6558 362.721Z" fill="#CBECF7" stroke="#A6E0F2" stroke-miterlimit="10"/>
<path d="M31.6558 362.721L24.6827 357.262" stroke="#A6E0F2" stroke-width="0.5" stroke-miterlimit="10"/>
<path d="M35.1977 344.451L30.1062 337.655" stroke="#A6E0F2" stroke-width="2" stroke-miterlimit="10"/>
<path d="M31.6558 339.772C31.6558 339.772 32.0985 337.098 29.8848 334.536C28.5566 333.088 21.0301 328.966 20.0339 331.64C18.9271 334.536 26.2322 341.332 31.6558 339.772Z" fill="#CBECF7" stroke="#A6E0F2" stroke-miterlimit="10"/>
<path d="M31.6558 339.772L24.6827 334.313" stroke="#A6E0F2" stroke-width="0.5" stroke-miterlimit="10"/>
<path d="M35.1977 321.391L30.1062 314.595" stroke="#A6E0F2" stroke-width="2" stroke-miterlimit="10"/>
<path d="M31.6558 316.601C31.6558 316.601 32.0985 313.927 29.8848 311.365C28.5566 309.917 21.0301 305.795 20.0339 308.468C18.9271 311.476 26.2322 318.272 31.6558 316.601Z" fill="#CBECF7" stroke="#A6E0F2" stroke-miterlimit="10"/>
<path d="M31.6558 316.601L24.6827 311.142" stroke="#A6E0F2" stroke-width="0.5" stroke-miterlimit="10"/>
<path d="M35.087 440.367L40.2892 433.683" stroke="#A6E0F2" stroke-width="2" stroke-miterlimit="10"/>
<path d="M38.7396 435.688C38.7396 435.688 38.2968 433.014 40.5105 430.452C41.8388 429.004 49.3653 424.882 50.3615 427.556C51.4683 430.452 44.0524 437.248 38.7396 435.688Z" fill="#CBECF7" stroke="#A6E0F2" stroke-miterlimit="10"/>
<path d="M38.7396 435.688L46.0448 429.895" stroke="#A6E0F2" stroke-width="0.5" stroke-miterlimit="10"/>
<path d="M35.087 393.579L40.2892 386.894" stroke="#A6E0F2" stroke-width="2" stroke-miterlimit="10"/>
<path d="M38.7396 388.9C38.7396 388.9 38.2968 386.226 40.5105 383.664C41.8388 382.216 49.3653 378.094 50.3615 380.767C51.4683 383.664 44.0524 390.459 38.7396 388.9Z" fill="#CBECF7" stroke="#A6E0F2" stroke-miterlimit="10"/>
<path d="M38.7396 388.9L46.0448 383.107" stroke="#A6E0F2" stroke-width="0.5" stroke-miterlimit="10"/>
<path d="M35.087 370.519L40.2892 363.723" stroke="#A6E0F2" stroke-width="2" stroke-miterlimit="10"/>
<path d="M38.7396 365.84C38.7396 365.84 38.2968 363.166 40.5105 360.604C41.8388 359.156 49.3653 355.034 50.3615 357.708C51.4683 360.604 44.0524 367.399 38.7396 365.84Z" fill="#CBECF7" stroke="#A6E0F2" stroke-miterlimit="10"/>
<path d="M38.7396 365.84L46.0448 360.047" stroke="#A6E0F2" stroke-width="0.5" stroke-miterlimit="10"/>
<path d="M35.087 339.995L40.2892 333.199" stroke="#A6E0F2" stroke-width="2" stroke-miterlimit="10"/>
<path d="M38.7396 335.316C38.7396 335.316 38.2968 332.642 40.5105 330.08C41.8388 328.632 49.3653 324.51 50.3615 327.184C51.4683 330.08 44.0524 336.876 38.7396 335.316Z" fill="#CBECF7" stroke="#A6E0F2" stroke-miterlimit="10"/>
<path d="M38.7396 335.316L46.0448 329.523" stroke="#A6E0F2" stroke-width="0.5" stroke-miterlimit="10"/>
<path d="M35.087 316.044L40.2892 309.248" stroke="#A6E0F2" stroke-width="2" stroke-miterlimit="10"/>
<path d="M38.7396 311.253C38.7396 311.253 38.2969 308.58 40.5106 306.018C41.8388 304.569 49.3653 300.448 50.3615 303.121C51.4683 306.129 44.0525 312.813 38.7396 311.253Z" fill="#CBECF7" stroke="#A6E0F2" stroke-miterlimit="10"/>
<path d="M38.7396 311.253L46.0448 305.572" stroke="#A6E0F2" stroke-width="0.5" stroke-miterlimit="10"/>
<path d="M34.755 300.67C34.755 300.67 34.3122 297.997 36.5259 295.435C37.8541 293.986 45.3807 289.865 46.3768 292.538C47.5944 295.435 40.1785 302.23 34.755 300.67Z" fill="#CBECF7" stroke="#A6E0F2" stroke-miterlimit="10"/>
<path d="M34.755 300.67L42.1708 294.878" stroke="#A6E0F2" stroke-width="0.5" stroke-miterlimit="10"/>
<path d="M35.1977 300.893C35.1977 300.893 32.4306 301.005 30.2169 298.554C28.8887 296.994 25.5681 289.085 28.3353 288.416C31.3237 287.636 37.3007 295.769 35.1977 300.893Z" fill="#CBECF7" stroke="#A6E0F2" stroke-miterlimit="10"/>
<path d="M35.1977 300.893L30.2169 292.984" stroke="#A6E0F2" stroke-width="0.5" stroke-miterlimit="10"/>
<path d="M41.5067 495.621H25.0147L22.9117 453.735H43.499L41.5067 495.621Z" fill="#A6E0F2" stroke="#A6E0F2" stroke-miterlimit="10"/>
<path d="M111.681 174.899H12.7287V16.3759H135.257V174.899H118.211" stroke="#A6E0F2" stroke-miterlimit="10"/>
<path d="M130.829 22.1688H17.1561V169.218H130.829V22.1688Z" stroke="#A6E0F2" stroke-miterlimit="10"/>
<path d="M39.9571 62.3844C41.8388 64.1668 44.0525 65.8378 46.3768 67.5088C72.0557 85.1101 115.665 76.7551 130.386 101.709" stroke="#A6E0F2" stroke-miterlimit="10"/>
<path d="M24.7934 22.7258C24.7934 22.7258 21.8049 42.4437 36.7473 59.1538" stroke="#A6E0F2" stroke-miterlimit="10"/>
<path d="M34.5336 103.714C47.041 97.03 63.3116 92.3512 71.6129 105.831C81.2425 121.538 36.7473 149.277 36.7473 169.106" stroke="#A6E0F2" stroke-miterlimit="10"/>
<path d="M17.4882 115.077C17.4882 115.077 23.2438 110.287 31.1024 105.608" stroke="#A6E0F2" stroke-miterlimit="10"/>
<path d="M76.7044 22.7258C76.7044 22.7258 93.1964 48.5707 130.829 41.6639" stroke="#A6E0F2" stroke-miterlimit="10"/>
<path d="M81.6852 48.1251C81.7959 48.6821 81.7959 49.3505 81.7959 50.0189C81.7959 58.4854 75.0442 65.2808 66.6321 65.2808C58.2201 65.2808 51.4683 58.4854 51.4683 50.0189C51.4683 41.5525 58.2201 34.757 66.6321 34.757C72.3877 34.757 77.4792 38.099 80.025 42.8893" stroke="#A6E0F2" stroke-miterlimit="10"/>
<path d="M119.429 70.5166C119.429 74.5271 116.219 77.6463 112.345 77.6463C108.36 77.6463 105.261 74.4157 105.261 70.5166C105.261 66.5062 108.471 63.387 112.345 63.387C116.219 63.387 119.429 66.6176 119.429 70.5166Z" stroke="#A6E0F2" stroke-miterlimit="10"/>
<path d="M119.539 118.865C123.635 119.979 127.287 121.872 130.497 124.435" stroke="#A6E0F2" stroke-miterlimit="10"/>
<path d="M92.2003 169.329C86.334 163.87 82.6814 156.184 82.6814 147.494C82.6814 131.119 95.8528 117.973 112.013 117.973C112.566 117.973 113.12 117.973 113.673 117.973" stroke="#A6E0F2" stroke-miterlimit="10"/>
<path d="M340.798 495.621H516.786" stroke="#A6E0F2" stroke-miterlimit="10"/>
<path d="M2.103 495.622H331.943" stroke="#A6E0F2" stroke-miterlimit="10"/>
<path d="M422.151 26.0677H198.79V442.595H422.151V26.0677Z" fill="white"/>
<path d="M428.792 107.947C430.342 107.947 431.559 106.722 431.559 105.162V77.4234C431.559 75.8638 430.342 74.6384 428.792 74.6384C428.571 74.6384 428.46 74.6384 428.239 74.6384V22.7257C428.239 12.8111 420.269 4.79022 410.418 4.79022H214.507C204.656 4.79022 196.686 12.8111 196.686 22.7257V441.926C196.686 451.841 204.656 459.862 214.507 459.862H410.64C420.491 459.862 428.46 451.841 428.46 441.926V186.93C428.681 186.93 428.792 186.93 429.013 186.93C430.563 186.93 431.781 185.705 431.781 184.145V156.406C431.781 154.847 430.563 153.621 429.013 153.621C428.792 153.621 428.681 153.621 428.46 153.621V147.383C428.681 147.383 428.792 147.383 429.013 147.383C430.563 147.383 431.781 146.158 431.781 144.598V116.971C431.781 115.411 430.563 114.186 429.013 114.186C428.792 114.186 428.681 114.186 428.46 114.186V107.947C428.46 107.947 428.681 107.947 428.792 107.947ZM418.056 432.903H206.98V35.7596H418.056V432.903Z" fill="#A6E0F2"/>
<path d="M410.861 39.8814H393.373V49.5733H410.861V39.8814Z" stroke="#A6E0F2" stroke-width="0.8211" stroke-miterlimit="10" stroke-linecap="round" stroke-linejoin="round"/>
<path d="M406.987 39.8814H393.373V49.5733H406.987V39.8814Z" fill="#A6E0F2" stroke="#A6E0F2" stroke-width="0.7251" stroke-miterlimit="10" stroke-linecap="round" stroke-linejoin="round"/>
<path d="M413.296 42.5551H410.861V46.7883H413.296V42.5551Z" fill="#A6E0F2" stroke="#A6E0F2" stroke-width="0.7251" stroke-miterlimit="10" stroke-linecap="round" stroke-linejoin="round"/>
<path d="M214.949 42.8892H211.74V48.4593H214.949V42.8892Z" fill="#A6E0F2" stroke="#A6E0F2" stroke-width="0.8831" stroke-miterlimit="10" stroke-linecap="round" stroke-linejoin="round"/>
<path d="M219.93 40.884H216.72V48.3479H219.93V40.884Z" fill="#A6E0F2" stroke="#A6E0F2" stroke-width="0.8831" stroke-miterlimit="10" stroke-linecap="round" stroke-linejoin="round"/>
<path d="M225.022 38.656H221.812V48.4593H225.022V38.656Z" fill="#A6E0F2" stroke="#A6E0F2" stroke-width="0.8831" stroke-miterlimit="10" stroke-linecap="round" stroke-linejoin="round"/>
<path opacity="0.15" d="M426.468 186.93C426.689 186.93 426.8 186.93 427.021 186.93C428.571 186.93 429.788 185.705 429.788 184.145V174.231L416.174 198.405V432.903H284.127L268.964 459.862H408.869C418.72 459.862 426.689 451.841 426.689 441.926V186.93H426.468Z" fill="white"/>
<path d="M303.94 293.318C303.94 289.085 303.94 284.74 303.94 280.507C306.043 280.507 308.146 280.507 310.249 280.507C310.249 278.39 310.249 276.274 310.249 274.157C308.146 274.157 306.043 274.157 303.94 274.157C303.94 272.04 303.94 269.924 303.94 267.807C308.146 267.807 312.352 267.807 316.669 267.807C316.669 265.691 316.669 263.574 316.669 261.457C318.772 261.457 320.875 261.457 322.978 261.457C322.978 263.574 322.978 265.691 322.978 267.807C325.081 267.807 327.184 267.807 329.287 267.807C329.287 263.574 329.287 259.341 329.287 255.108C329.508 255.108 329.84 255.108 330.061 255.108C336.149 255.108 342.237 255.108 348.324 255.108C348.324 257.224 348.324 259.341 348.324 261.457C350.427 261.457 352.53 261.457 354.633 261.457C354.633 259.341 354.633 257.224 354.633 255.108C352.53 255.108 350.427 255.108 348.324 255.108C348.324 252.991 348.324 250.874 348.324 248.646C344.008 248.646 339.912 248.646 335.596 248.646C335.596 244.413 335.596 240.18 335.596 235.947C329.287 235.947 322.978 235.947 316.558 235.947C316.558 238.063 316.558 240.18 316.558 242.296C312.352 242.296 308.146 242.296 303.94 242.296C303.94 246.53 303.94 250.763 303.94 255.108C306.043 255.108 308.146 255.108 310.249 255.108C310.249 257.224 310.249 259.341 310.249 261.457C308.146 261.457 306.043 261.457 303.94 261.457C303.94 263.574 303.94 265.691 303.94 267.807C301.837 267.807 299.734 267.807 297.631 267.807C297.631 265.691 297.631 263.574 297.631 261.457C291.211 261.457 284.902 261.457 278.593 261.457C278.593 259.341 278.593 257.224 278.593 255.108C284.902 255.108 291.211 255.108 297.631 255.108C297.631 238.063 297.631 221.019 297.631 203.975C299.734 203.975 301.948 203.975 304.051 203.975C304.051 210.102 304.051 216.229 304.051 222.467C304.051 222.69 304.051 222.913 304.051 223.136C306.154 223.136 308.257 223.136 310.36 223.136C310.36 218.902 310.36 214.669 310.36 210.436C312.463 210.436 314.566 210.436 316.669 210.436C316.669 214.669 316.669 218.902 316.669 223.247C318.882 223.247 320.985 223.247 323.088 223.247C323.088 225.364 323.088 227.48 323.088 229.597C333.714 229.597 344.229 229.597 354.855 229.597C354.855 231.713 354.855 233.83 354.855 235.947C356.958 235.947 359.061 235.947 361.164 235.947C361.164 238.175 361.164 240.291 361.164 242.408C359.061 242.408 356.958 242.408 354.855 242.408C354.855 244.524 354.855 246.641 354.855 248.758C356.958 248.758 359.061 248.758 361.164 248.758C361.164 252.991 361.164 257.224 361.164 261.569C363.267 261.569 365.37 261.569 367.473 261.569C367.473 265.802 367.473 270.035 367.473 274.38C365.37 274.38 363.267 274.38 361.164 274.38C361.164 278.613 361.164 282.846 361.164 287.191C363.267 287.191 365.37 287.191 367.473 287.191C367.473 289.307 367.473 291.424 367.473 293.541C371.679 293.541 375.885 293.541 380.091 293.541C380.091 295.657 380.091 297.774 380.091 299.891C373.782 299.891 367.473 299.891 361.053 299.891C361.053 304.124 361.053 308.357 361.053 312.702C358.95 312.702 356.847 312.702 354.744 312.702C354.744 310.585 354.744 308.468 354.744 306.352C350.427 306.352 346.221 306.352 342.015 306.352C342.015 304.235 342.015 302.119 342.015 300.002C339.912 300.002 337.809 300.002 335.706 300.002C335.706 297.885 335.706 295.769 335.706 293.652C339.912 293.652 344.118 293.652 348.324 293.652C348.324 291.536 348.324 289.419 348.324 287.302C337.809 287.302 327.294 287.302 316.669 287.302C316.669 289.419 316.669 291.536 316.669 293.652C312.352 293.318 308.146 293.318 303.94 293.318ZM342.015 274.157C342.015 272.04 342.015 269.924 342.015 267.807C339.912 267.807 337.809 267.807 335.706 267.807C335.706 269.924 335.706 272.04 335.706 274.157C337.809 274.157 339.912 274.157 342.015 274.157C342.015 276.274 342.015 278.39 342.015 280.507C346.221 280.507 350.427 280.507 354.633 280.507C354.633 278.39 354.633 276.274 354.633 274.157C350.427 274.157 346.221 274.157 342.015 274.157ZM329.287 274.157C327.184 274.157 325.081 274.157 322.978 274.157C322.978 276.274 322.978 278.39 322.978 280.507C325.081 280.507 327.184 280.507 329.287 280.507C329.287 278.39 329.287 276.274 329.287 274.157ZM342.015 242.185C344.118 242.185 346.221 242.185 348.324 242.185C348.324 240.068 348.324 237.952 348.324 235.835C346.221 235.835 344.118 235.835 342.015 235.835C342.015 237.952 342.015 240.068 342.015 242.185Z" fill="#A6E0F2"/>
<path d="M246.826 223.024C246.826 208.096 246.826 193.28 246.826 178.352C261.658 178.352 276.379 178.352 291.211 178.352C291.211 193.169 291.211 208.096 291.211 223.024C276.379 223.024 261.658 223.024 246.826 223.024ZM253.135 184.702C253.135 195.397 253.135 205.98 253.135 216.563C263.761 216.563 274.276 216.563 284.791 216.563C284.791 205.868 284.791 195.285 284.791 184.702C274.276 184.702 263.761 184.702 253.135 184.702Z" fill="#A6E0F2"/>
<path d="M379.98 223.024C365.148 223.024 350.427 223.024 335.596 223.024C335.596 208.096 335.596 193.28 335.596 178.352C350.317 178.352 365.148 178.352 379.98 178.352C379.98 193.28 379.98 208.096 379.98 223.024ZM373.671 184.814C363.045 184.814 352.53 184.814 342.015 184.814C342.015 195.508 342.015 206.091 342.015 216.674C352.641 216.674 363.156 216.674 373.671 216.674C373.671 205.98 373.671 195.397 373.671 184.814Z" fill="#A6E0F2"/>
<path d="M246.827 267.807C261.658 267.807 276.379 267.807 291.211 267.807C291.211 282.735 291.211 297.551 291.211 312.479C276.49 312.479 261.658 312.479 246.827 312.479C246.827 297.551 246.827 282.735 246.827 267.807ZM284.902 274.157C274.276 274.157 263.761 274.157 253.246 274.157C253.246 284.851 253.246 295.435 253.246 306.018C263.872 306.018 274.387 306.018 284.902 306.018C284.902 295.435 284.902 284.851 284.902 274.157Z" fill="#A6E0F2"/>
<path d="M303.94 203.863C303.94 199.63 303.94 195.397 303.94 191.052C301.837 191.052 299.734 191.052 297.631 191.052C297.631 186.819 297.631 182.586 297.631 178.352C308.146 178.352 318.661 178.352 329.287 178.352C329.287 182.586 329.287 186.819 329.287 191.052C327.184 191.052 325.081 191.052 322.978 191.052C322.978 193.169 322.978 195.285 322.978 197.402C325.081 197.402 327.184 197.402 329.287 197.402C329.287 201.635 329.287 205.868 329.287 210.102C327.184 210.102 325.081 210.102 322.978 210.102C322.978 207.985 322.978 205.868 322.978 203.752C320.875 203.752 318.772 203.752 316.669 203.752C316.669 201.635 316.669 199.519 316.669 197.402C314.566 197.402 312.463 197.402 310.36 197.402C310.36 199.519 310.36 201.635 310.36 203.752C308.146 203.863 306.043 203.863 303.94 203.863ZM310.249 191.052C312.352 191.052 314.455 191.052 316.558 191.052C316.558 188.936 316.558 186.819 316.558 184.702C314.455 184.702 312.352 184.702 310.249 184.702C310.249 186.819 310.249 188.936 310.249 191.052Z" fill="#A6E0F2"/>
<path d="M278.482 235.835C278.482 237.952 278.482 240.068 278.482 242.185C282.688 242.185 286.894 242.185 291.1 242.185C291.1 244.302 291.1 246.418 291.1 248.535C284.791 248.535 278.482 248.535 272.063 248.535C272.063 252.768 272.063 257.001 272.063 261.346C263.54 261.346 255.128 261.346 246.716 261.346C246.716 257.113 246.716 252.879 246.716 248.646C248.819 248.646 250.922 248.646 253.025 248.646C253.025 250.763 253.025 252.879 253.025 254.996C257.231 254.996 261.437 254.996 265.754 254.996C265.754 248.646 265.754 242.296 265.754 235.835C270.07 235.835 274.276 235.835 278.482 235.835Z" fill="#A6E0F2"/>
<path d="M303.94 293.318C303.94 295.434 303.94 297.551 303.94 299.668C306.043 299.668 308.146 299.668 310.249 299.668C310.249 301.784 310.249 303.901 310.249 306.018C312.352 306.018 314.455 306.018 316.558 306.018C316.558 308.134 316.558 310.251 316.558 312.367C310.249 312.367 303.94 312.367 297.631 312.367C297.631 306.018 297.631 299.668 297.631 293.207C299.734 293.318 301.837 293.318 303.94 293.318Z" fill="#A6E0F2"/>
<path d="M265.864 235.835C261.658 235.835 257.452 235.835 253.136 235.835C253.136 237.952 253.136 240.068 253.136 242.185C251.033 242.185 248.93 242.185 246.827 242.185C246.827 237.952 246.827 233.719 246.827 229.485C253.136 229.485 259.445 229.485 265.864 229.485C265.864 231.602 265.864 233.719 265.864 235.835Z" fill="#A6E0F2"/>
<path d="M379.98 248.535C377.877 248.535 375.774 248.535 373.671 248.535C373.671 244.302 373.671 240.068 373.671 235.835C371.568 235.835 369.465 235.835 367.362 235.835C367.362 233.719 367.362 231.602 367.362 229.485C371.568 229.485 375.774 229.485 379.98 229.485C379.98 235.835 379.98 242.185 379.98 248.535Z" fill="#A6E0F2"/>
<path d="M278.593 235.835C278.593 233.719 278.593 231.602 278.593 229.485C282.799 229.485 287.005 229.485 291.211 229.485C291.211 231.602 291.211 233.719 291.211 235.835C287.005 235.835 282.799 235.835 278.593 235.835C278.482 235.835 278.593 235.835 278.593 235.835Z" fill="#A6E0F2"/>
<path d="M367.362 261.346C367.362 259.229 367.362 257.113 367.362 254.996C369.465 254.996 371.568 254.996 373.671 254.996C373.671 257.113 373.671 259.229 373.671 261.346C371.568 261.346 369.465 261.346 367.362 261.346Z" fill="#A6E0F2"/>
<path d="M373.782 267.807C375.885 267.807 377.988 267.807 380.091 267.807C380.091 269.924 380.091 272.04 380.091 274.157C377.988 274.157 375.885 274.157 373.782 274.157C373.782 272.04 373.782 269.924 373.782 267.807Z" fill="#A6E0F2"/>
<path d="M322.978 223.024C322.978 220.907 322.978 218.791 322.978 216.674C325.081 216.674 327.184 216.674 329.287 216.674C329.287 218.791 329.287 220.907 329.287 223.024C327.184 223.024 325.081 223.024 322.978 223.024Z" fill="#A6E0F2"/>
<path d="M303.94 280.507C301.837 280.507 299.734 280.507 297.631 280.507C297.631 278.39 297.631 276.274 297.631 274.157C299.734 274.157 301.837 274.157 303.94 274.157C303.94 276.274 303.94 278.39 303.94 280.507Z" fill="#A6E0F2"/>
<path d="M367.362 286.968C367.362 284.851 367.362 282.735 367.362 280.618C369.465 280.618 371.568 280.618 373.671 280.618C373.671 282.735 373.671 284.851 373.671 286.968C371.568 286.968 369.465 286.968 367.362 286.968Z" fill="#A6E0F2"/>
<path d="M361.053 242.185C363.156 242.185 365.259 242.185 367.362 242.185C367.362 244.302 367.362 246.418 367.362 248.535C365.259 248.535 363.156 248.535 361.053 248.535C361.053 246.53 361.053 244.302 361.053 242.185Z" fill="#A6E0F2"/>
<path d="M329.287 306.018C327.184 306.018 325.081 306.018 322.978 306.018C322.978 303.901 322.978 301.784 322.978 299.668C325.081 299.668 327.184 299.668 329.287 299.668C329.287 301.784 329.287 303.901 329.287 306.018Z" fill="#A6E0F2"/>
<path d="M342.015 306.129C342.015 308.246 342.015 310.362 342.015 312.479C339.912 312.479 337.809 312.479 335.706 312.479C335.706 310.362 335.706 308.246 335.706 306.129C337.809 306.129 339.912 306.129 342.015 306.129Z" fill="#A6E0F2"/>
<path d="M379.98 312.479C377.877 312.479 375.774 312.479 373.671 312.479C373.671 310.362 373.671 308.246 373.671 306.129C375.774 306.129 377.877 306.129 379.98 306.129C379.98 308.246 379.98 310.251 379.98 312.479Z" fill="#A6E0F2"/>
<path d="M329.287 254.996C327.184 254.996 325.081 254.996 322.978 254.996C322.978 252.879 322.978 250.763 322.978 248.646C325.081 248.646 327.184 248.646 329.287 248.646C329.287 250.763 329.287 252.879 329.287 254.996Z" fill="#A6E0F2"/>
<path d="M278.482 210.213C272.173 210.213 265.864 210.213 259.555 210.213C259.555 203.863 259.555 197.513 259.555 191.164C265.864 191.164 272.173 191.164 278.482 191.164C278.482 197.513 278.482 203.863 278.482 210.213Z" fill="#A6E0F2"/>
<path d="M348.324 210.213C348.324 203.863 348.324 197.513 348.324 191.164C354.633 191.164 360.942 191.164 367.251 191.164C367.251 197.513 367.251 203.863 367.251 210.213C361.053 210.213 354.744 210.213 348.324 210.213Z" fill="#A6E0F2"/>
<path d="M259.555 299.668C259.555 293.318 259.555 286.968 259.555 280.618C265.864 280.618 272.173 280.618 278.482 280.618C278.482 286.968 278.482 293.318 278.482 299.668C272.173 299.668 265.864 299.668 259.555 299.668Z" fill="#A6E0F2"/>
<path d="M265.2 163.202H237.529V194.06" stroke="#CBECF7" stroke-width="2" stroke-miterlimit="10"/>
<path d="M366.255 163.202H394.037V194.06" stroke="#CBECF7" stroke-width="2" stroke-miterlimit="10"/>
<path d="M265.2 325.736H237.529V294.878" stroke="#CBECF7" stroke-width="2" stroke-miterlimit="10"/>
<path d="M366.255 325.736H394.037V294.878" stroke="#CBECF7" stroke-width="2" stroke-miterlimit="10"/>
<path d="M180.748 201.858H171.561C169.901 201.858 168.573 200.521 168.573 198.85V172.894C168.573 171.223 169.901 169.886 171.561 169.886H180.748C182.408 169.886 183.736 171.223 183.736 172.894V198.85C183.626 200.521 182.408 201.858 180.748 201.858Z" fill="#A6E0F2" stroke="#A6E0F2" stroke-miterlimit="10"/>
<path d="M182.408 172.782H169.901V199.073H182.408V172.782Z" fill="white" stroke="#A6E0F2" stroke-miterlimit="10"/>
<path d="M48.1478 326.404C53.2393 326.515 57.7774 324.51 60.6552 322.728C60.4338 329.857 60.2124 335.205 60.2124 335.205C60.2124 335.205 61.4299 337.321 61.9834 338.212C62.5368 339.104 67.739 342.223 68.4031 344.896C68.9565 347.681 71.7236 349.13 71.3916 353.14C71.0595 357.15 67.739 352.806 68.4031 353.697C68.9565 354.588 70.8381 357.707 70.8381 360.381C70.8381 363.055 65.0825 363.166 62.9795 361.272C60.8765 359.49 53.9034 355.145 53.2393 351.135L50.9149 342.223L48.1478 326.404Z" fill="white" stroke="#A6E0F2" stroke-miterlimit="10"/>
<path d="M60.7658 348.573L62.2047 355.257C62.2047 355.257 66.9642 358.933 67.4069 361.607" fill="white"/>
<path d="M60.7658 348.573L62.2047 355.257C62.2047 355.257 66.9642 358.933 67.4069 361.607" stroke="#A6E0F2" stroke-miterlimit="10"/>
<path d="M68.5138 353.92L66.3001 349.687" stroke="#A6E0F2" stroke-miterlimit="10"/>
<path d="M84.7844 489.717C84.7844 489.717 83.0135 504.088 84.4524 505.759C85.7806 507.541 87.8836 509.658 90.9827 509.992C94.0819 510.326 99.2841 508.655 99.2841 508.655C99.2841 508.655 104.486 510.215 110.02 509.658C115.555 509.101 119.207 506.984 119.65 504.199C119.982 501.526 115.223 500.3 112.566 497.404C109.91 494.507 105.593 489.383 105.593 489.383L104.486 485.595C104.486 485.595 97.9559 488.937 93.7498 489.049C89.5438 489.272 86.666 488.492 86.666 488.492L84.7844 489.717Z" fill="white" stroke="#A6E0F2" stroke-miterlimit="10"/>
<path d="M119.539 504.311C119.539 503.977 119.539 503.642 119.429 503.308C118.1 503.865 116.551 504.534 114.559 505.202C108.803 507.319 105.925 505.536 103.047 505.536C100.17 505.536 99.9482 508.655 91.8682 506.539C86.5554 505.202 84.563 503.308 83.8989 502.306C83.8989 503.977 84.0096 505.313 84.4523 505.759C85.7806 507.541 87.8836 509.658 90.9827 509.992C94.0819 510.326 99.2841 508.655 99.2841 508.655C99.2841 508.655 104.486 510.215 110.02 509.658C115.555 509.101 119.207 506.984 119.539 504.311Z" fill="white" stroke="#A6E0F2" stroke-miterlimit="10"/>
<path d="M74.4907 311.81C74.4907 311.81 66.7428 337.99 69.5099 356.371C72.277 374.752 85.5592 409.286 85.5592 409.286C85.5592 409.286 83.8989 422.097 83.8989 426.553C83.8989 431.009 80.025 439.364 82.7921 448.276C85.5592 457.188 85.5592 480.582 85.5592 482.253C85.5592 483.924 84.4523 492.836 84.4523 492.836C84.4523 492.836 86.666 496.178 94.9674 496.178C103.269 496.178 105.482 489.494 105.482 489.494C105.482 489.494 113.784 439.921 113.784 432.123C113.784 424.325 122.639 395.361 125.959 383.664C129.28 371.967 133.375 364.503 135.589 360.604C137.802 356.705 136.474 309.582 136.474 309.582L73.3839 304.012L74.4907 311.81Z" fill="#B3E4F3" stroke="#A6E0F2" stroke-miterlimit="10"/>
<path d="M117.99 493.393C117.99 493.393 126.291 496.735 130.276 498.629C134.26 500.523 137.028 500.746 137.028 503.865C137.028 506.984 129.722 510.104 125.295 510.883C120.868 511.663 113.784 511.44 113.009 511.663C112.234 511.886 97.8452 514.003 96.0742 510.326C94.3033 506.65 96.2956 494.062 96.2956 494.062C96.2956 494.062 106.257 496.178 117.99 493.393Z" fill="white" stroke="#A6E0F2" stroke-miterlimit="10"/>
<path d="M113.009 511.663C113.784 511.44 120.868 511.663 125.295 510.883C129.722 510.104 137.028 506.984 137.028 503.865C137.028 503.42 136.917 502.974 136.806 502.64C135.257 503.531 133.264 504.534 131.051 505.536C125.627 507.876 118.543 509.435 107.807 509.212C101.941 509.101 97.9559 508.321 95.5208 507.653C95.6315 508.655 95.8529 509.547 96.0742 510.215C97.8452 514.003 112.234 511.886 113.009 511.663Z" fill="white" stroke="#A6E0F2" stroke-miterlimit="10"/>
<path d="M137.028 314.038C137.028 314.038 140.348 359.156 133.707 393.133C127.066 427.11 115.997 473.341 115.444 475.569C114.891 477.797 119.318 483.924 119.318 483.924V492.836C119.318 492.836 115.444 496.735 106.589 497.849C97.7345 498.963 94.9674 496.178 94.9674 496.178C94.9674 496.178 92.7537 481.139 92.7537 470.556C92.7537 459.973 94.9674 423.768 94.9674 423.768C94.9674 423.768 99.9482 387.006 99.3948 381.436C98.8413 375.866 97.1811 358.599 97.1811 358.599L88.3263 348.016" fill="#B3E4F3"/>
<path d="M137.028 314.038C137.028 314.038 140.348 359.156 133.707 393.133C127.066 427.11 115.997 473.341 115.444 475.569C114.891 477.797 119.318 483.924 119.318 483.924V492.836C119.318 492.836 115.444 496.735 106.589 497.849C97.7345 498.963 94.9674 496.178 94.9674 496.178C94.9674 496.178 92.7537 481.139 92.7537 470.556C92.7537 459.973 94.9674 423.768 94.9674 423.768C94.9674 423.768 99.9482 387.006 99.3948 381.436C98.8413 375.866 97.1811 358.599 97.1811 358.599L88.3263 348.016" stroke="#A6E0F2" stroke-miterlimit="10"/>
<path d="M43.9418 305.572L61.3193 302.453C61.2086 304.792 61.762 289.865 61.762 288.75C61.762 286.3 67.5176 271.038 67.5176 271.038C67.5176 271.038 72.0557 290.978 72.0557 293.429C72.0557 295.88 70.2847 314.595 72.6091 317.046C75.0441 319.497 83.5669 324.399 102.383 323.73C121.2 323.173 135.257 321.614 138.909 317.937C142.562 314.261 138.245 302.898 138.024 301.45C137.692 299.891 142.894 259.786 142.894 259.786C142.894 259.786 163.26 281.175 175.435 278.167C187.61 275.16 181.855 227.369 181.855 227.369L182.408 213.555C182.408 213.555 186.393 203.418 186.393 201.969C186.393 200.41 182.408 189.381 182.408 189.381C182.408 189.381 179.973 187.264 178.424 192.389C176.874 197.625 176.653 200.967 176.653 200.967C176.653 200.967 173 203.752 173.332 207.651C173.664 211.661 174.882 214.669 174.882 214.669L166.691 241.628C166.691 241.628 157.615 231.268 156.951 229.374C156.287 227.592 156.619 220.796 149.092 216.786C141.455 212.775 125.959 212.552 125.959 212.552L83.1241 212.775C83.1241 212.775 63.0902 214.558 58.4415 218.568C53.9034 222.578 39.8465 273.043 39.8465 280.73C39.8465 283.069 41.064 290.533 42.8349 299.668L43.9418 305.572Z" fill="white" stroke="#A6E0F2" stroke-miterlimit="10"/>
<path d="M182.63 189.158C182.63 189.158 181.744 196.845 182.298 198.293C182.962 199.853 183.515 203.529 182.962 206.537" stroke="#A6E0F2" stroke-miterlimit="10"/>
<path d="M175.656 277.945C187.832 274.937 182.076 227.146 182.076 227.146L182.187 224.027C178.756 221.465 175.324 221.464 172.779 222.133L166.912 241.517C166.912 241.517 157.836 231.156 157.172 229.263C156.508 227.48 156.84 220.685 149.313 216.674C141.676 212.664 126.18 212.441 126.18 212.441L83.1241 212.775C83.1241 212.775 63.0902 214.558 58.4415 218.568C53.9034 222.578 39.8465 273.043 39.8465 280.73C39.8465 285.297 44.3845 307.911 48.1478 326.404C53.2393 326.515 57.7774 324.51 60.6551 322.728C61.0979 309.471 61.762 290.199 61.762 288.639C61.762 286.188 67.5176 270.926 67.5176 270.926C67.5176 270.926 72.0557 290.867 72.0557 293.318C72.0557 295.769 70.2847 314.484 72.6091 316.935C75.0441 319.386 83.5669 324.287 102.383 323.619C121.2 323.062 135.257 321.502 138.909 317.826C142.562 314.15 138.245 302.787 138.024 301.339C137.692 299.779 142.894 259.675 142.894 259.675C142.894 259.675 163.481 281.064 175.656 277.945Z" fill="#EEF8FB" stroke="#A6E0F2" stroke-miterlimit="10"/>
<path d="M61.6513 254.105L67.6283 270.926L55.2316 249.76" stroke="#A6E0F2" stroke-miterlimit="10"/>
<path d="M58.2201 244.524L60.3231 250.54" stroke="#A6E0F2" stroke-miterlimit="10"/>
<path d="M100.391 255.219C103.047 261.346 107.032 268.921 111.791 273.823" stroke="#A6E0F2" stroke-miterlimit="10"/>
<path d="M96.6277 245.638C96.6277 245.638 97.5131 248.201 98.952 251.765" stroke="#A6E0F2" stroke-miterlimit="10"/>
<path d="M103.269 266.136C103.269 266.136 109.91 279.504 113.23 282.066" stroke="#A6E0F2" stroke-miterlimit="10"/>
<path d="M153.52 249.872L155.955 247.532" stroke="#A6E0F2" stroke-miterlimit="10"/>
<path d="M149.313 246.418L143.115 259.563L151.195 251.988" stroke="#A6E0F2" stroke-miterlimit="10"/>
<path d="M178.091 253.882C177.759 251.32 166.802 241.517 166.802 241.517C166.802 241.517 178.092 246.084 181.08 250.094" stroke="#A6E0F2" stroke-miterlimit="10"/>
<path d="M130.276 172.337C130.276 172.337 130.829 180.023 131.825 181.249C132.711 182.474 133.375 191.943 131.825 194.728C130.276 197.513 129.39 200.855 128.505 201.747C127.619 202.638 124.299 202.638 123.081 202.638C121.864 202.638 108.139 201.969 108.139 201.969L108.471 182.697C108.36 182.697 111.681 168.326 130.276 172.337Z" fill="white" stroke="#A6E0F2" stroke-miterlimit="10"/>
<path d="M105.925 150.836C105.925 150.836 93.4178 154.847 90.7614 165.876C87.9942 176.904 96.849 189.493 96.849 189.493C96.849 189.493 99.2841 198.405 101.387 200.187C103.49 201.969 112.013 200.187 114.78 199.63C117.547 199.073 123.635 182.474 123.635 182.474C123.635 182.474 123.635 186.485 125.406 186.485C127.177 186.485 126.955 181.249 126.955 180.358C126.955 179.466 135.478 173.005 135.478 161.977C135.478 150.948 126.07 146.046 117.215 146.715C108.36 147.16 105.925 150.836 105.925 150.836Z" fill="#A6E0F2" stroke="#A6E0F2" stroke-miterlimit="10"/>
<path d="M131.825 211.773C131.825 211.773 130.054 205.311 129.058 204.42C128.173 203.529 122.417 199.853 112.898 199.184C103.49 198.627 89.4331 198.85 88.2156 199.519C86.9981 200.076 86.666 205.311 86.666 205.311C86.666 205.311 82.6814 208.988 81.7959 211.104C80.9104 213.221 80.0249 214.112 88.437 221.242C96.9597 228.26 101.498 231.045 110.353 228.928C119.207 226.812 131.936 213.889 131.936 213.889L131.825 211.773Z" fill="#EEF8FB" stroke="#A6E0F2" stroke-miterlimit="10"/>
<path d="M110.02 216.117C118.543 213.444 127.177 208.096 127.177 208.096" stroke="#A6E0F2" stroke-miterlimit="10"/>
<path d="M86.7767 206.648C86.7767 206.648 92.2003 217.677 101.941 217.677C103.158 217.677 104.486 217.565 105.925 217.231" stroke="#A6E0F2" stroke-miterlimit="10"/>
</g>
<defs>
<clipPath id="clip0_30_1462">
<rect width="519" height="513" fill="white"/>
</clipPath>
</defs>
</svg>
