<svg width="588" height="394" viewBox="0 0 588 394" fill="none" xmlns="http://www.w3.org/2000/svg">
<g clip-path="url(#clip0_30_1201)">
<path d="M565.595 271.855C565.595 271.855 587.636 138.376 508.398 66.649C438.45 3.35512 331.069 -17.7731 247.004 40.8055C217.039 61.6617 181.427 83.0619 145.907 96.301C106.106 111.172 61.6598 115.706 26.6858 173.56C-8.37922 231.503 15.8476 323.089 67.4888 359.361C119.221 395.632 210.208 391.914 288.991 385.658C367.682 379.491 531.44 436.891 565.595 271.855Z" fill="#92E3A9"/>
<path d="M565.595 271.855C565.595 271.855 587.636 138.376 508.398 66.649C438.45 3.35512 331.069 -17.7731 247.004 40.8055C217.039 61.6617 181.427 83.0619 145.907 96.301C106.106 111.172 61.6598 115.706 26.6858 173.56C-8.37922 231.503 15.8476 323.089 67.4888 359.361C119.221 395.632 210.208 391.914 288.991 385.658C367.682 379.491 531.44 436.891 565.595 271.855Z" fill="#CBECF7"/>
<path d="M262.214 192.058H34.3364V361.718H262.214V192.058Z" stroke="white" stroke-miterlimit="10"/>
<path d="M262.214 244.924H34.3364V252.632H262.214V244.924Z" stroke="white" stroke-miterlimit="10"/>
<path d="M43.7175 295.251C43.7175 295.251 55.5576 280.289 72.8625 281.195C90.1673 282.102 93.355 295.704 93.355 295.704H38.2528L43.7175 295.251Z" stroke="white" stroke-miterlimit="10"/>
<path d="M58.7454 297.064C58.7454 297.064 61.9331 281.195 72.8625 281.195" stroke="white" stroke-miterlimit="10"/>
<path d="M75.5948 296.157C75.5948 296.157 76.961 283.916 86.5242 285.729" stroke="white" stroke-miterlimit="10"/>
<path d="M122.5 295.251C122.5 295.251 134.34 280.289 151.645 281.195C168.95 282.102 172.138 295.704 172.138 295.704H117.035L122.5 295.251Z" stroke="white" stroke-miterlimit="10"/>
<path d="M137.437 297.064C137.437 297.064 140.624 281.195 151.554 281.195" stroke="white" stroke-miterlimit="10"/>
<path d="M154.286 296.157C154.286 296.157 155.652 283.916 165.216 285.729" stroke="white" stroke-miterlimit="10"/>
<path d="M201.191 295.251C201.191 295.251 213.032 280.289 230.336 281.195C247.641 282.102 250.829 295.704 250.829 295.704H195.727L201.191 295.251Z" stroke="white" stroke-miterlimit="10"/>
<path d="M216.219 297.064C216.219 297.064 219.407 281.195 230.336 281.195" stroke="white" stroke-miterlimit="10"/>
<path d="M233.069 296.157C233.069 296.157 234.435 283.916 243.998 285.729" stroke="white" stroke-miterlimit="10"/>
<path d="M262.214 295.704H34.3364V303.412H262.214V295.704Z" stroke="white" stroke-miterlimit="10"/>
<path d="M262.214 192.058H34.3364V199.766H262.214V192.058Z" stroke="white" stroke-miterlimit="10"/>
<path d="M262.214 339.23H34.3364V361.718H262.214V339.23Z" stroke="white" stroke-miterlimit="10"/>
<path d="M77.8718 218.174H46.9052V245.377H77.8718V218.174Z" stroke="white" stroke-miterlimit="10"/>
<path d="M77.8718 218.174H46.9052V222.163H77.8718V218.174Z" stroke="white" stroke-miterlimit="10"/>
<path d="M200.827 218.174H105.651V245.377H200.827V218.174Z" stroke="white" stroke-miterlimit="10"/>
<path d="M200.827 218.174H105.651V222.163H200.827V218.174Z" stroke="white" stroke-miterlimit="10"/>
<path d="M175.69 218.174H149.732V245.377H175.69V218.174Z" stroke="white" stroke-miterlimit="10"/>
<path d="M175.69 218.174H149.732V222.163H175.69V218.174Z" stroke="white" stroke-miterlimit="10"/>
<path d="M430.253 51.959H281.887V250.093H430.253V51.959Z" stroke="white" stroke-miterlimit="10"/>
<path d="M298.736 102.377H351.015" stroke="white" stroke-miterlimit="10"/>
<path d="M298.736 124.865H351.015" stroke="white" stroke-miterlimit="10"/>
<path d="M298.736 147.263H351.015" stroke="white" stroke-miterlimit="10"/>
<path d="M298.736 169.66H351.015" stroke="white" stroke-miterlimit="10"/>
<path d="M298.736 192.149H351.015" stroke="white" stroke-miterlimit="10"/>
<path d="M298.736 214.546H351.015" stroke="white" stroke-miterlimit="10"/>
<path d="M361.944 102.377H414.223" stroke="white" stroke-miterlimit="10"/>
<path d="M361.944 124.865H414.223" stroke="white" stroke-miterlimit="10"/>
<path d="M361.944 147.263H414.223" stroke="white" stroke-miterlimit="10"/>
<path d="M361.944 169.66H414.223" stroke="white" stroke-miterlimit="10"/>
<path d="M361.944 192.149H414.223" stroke="white" stroke-miterlimit="10"/>
<path d="M361.944 214.546H414.223" stroke="white" stroke-miterlimit="10"/>
<path d="M555.03 118.336H440.362V250.093H555.03V118.336Z" stroke="white" stroke-miterlimit="10"/>
<path d="M453.387 135.928H493.825" stroke="white" stroke-miterlimit="10"/>
<path d="M453.387 153.247H493.825" stroke="white" stroke-miterlimit="10"/>
<path d="M453.387 170.567H493.825" stroke="white" stroke-miterlimit="10"/>
<path d="M453.387 187.977H493.825" stroke="white" stroke-miterlimit="10"/>
<path d="M453.387 205.297H493.825" stroke="white" stroke-miterlimit="10"/>
<path d="M453.387 222.617H493.825" stroke="white" stroke-miterlimit="10"/>
<path d="M502.296 135.928H542.734" stroke="white" stroke-miterlimit="10"/>
<path d="M502.296 153.247H542.734" stroke="white" stroke-miterlimit="10"/>
<path d="M502.296 170.567H542.734" stroke="white" stroke-miterlimit="10"/>
<path d="M502.296 187.977H542.734" stroke="white" stroke-miterlimit="10"/>
<path d="M502.296 205.297H542.734" stroke="white" stroke-miterlimit="10"/>
<path d="M502.296 222.617H542.734" stroke="white" stroke-miterlimit="10"/>
<path d="M105.559 77.0771L94.5391 61.3896H85.8866H60.0205H51.368L40.3476 77.0771C28.3253 94.1247 29.0539 117.067 42.0781 133.389L47.1785 139.827H60.0205H85.9777H98.8197L103.92 133.389C116.944 116.976 117.582 94.1247 105.559 77.0771Z" fill="white" stroke="#A6E0F2" stroke-miterlimit="10" stroke-linecap="round" stroke-linejoin="round"/>
<path d="M40.3476 77.0771H60.658" stroke="#A6E0F2" stroke-miterlimit="10" stroke-linecap="round" stroke-linejoin="round"/>
<path d="M83.0632 83.5153H65.9406" stroke="#A6E0F2" stroke-miterlimit="10" stroke-linecap="round" stroke-linejoin="round"/>
<path d="M113.483 113.258H73.4089" stroke="#A6E0F2" stroke-miterlimit="10" stroke-linecap="round" stroke-linejoin="round"/>
<path d="M40.3476 112.714H55.8309" stroke="#A6E0F2" stroke-miterlimit="10" stroke-linecap="round" stroke-linejoin="round"/>
<path d="M93.7194 104.734H81.4238" stroke="#A6E0F2" stroke-miterlimit="10" stroke-linecap="round" stroke-linejoin="round"/>
<path d="M56.3773 124.411H67.0335" stroke="#A6E0F2" stroke-miterlimit="10" stroke-linecap="round" stroke-linejoin="round"/>
<path d="M96.9071 66.4677H87.8904" stroke="#A6E0F2" stroke-miterlimit="10" stroke-linecap="round" stroke-linejoin="round"/>
<path d="M72.9536 61.299V0.4534" stroke="#A6E0F2" stroke-miterlimit="10" stroke-linecap="round" stroke-linejoin="round"/>
<path d="M302.015 77.0771L290.994 61.3896H282.342H256.385H247.732L236.712 77.0771C224.69 94.1247 225.418 117.067 238.442 133.389L243.543 139.827H256.385H282.342H295.184L300.284 133.389C313.309 116.976 313.946 94.1247 302.015 77.0771Z" fill="white" stroke="#A6E0F2" stroke-miterlimit="10" stroke-linecap="round" stroke-linejoin="round"/>
<path d="M236.712 77.0771H257.022" stroke="#A6E0F2" stroke-miterlimit="10" stroke-linecap="round" stroke-linejoin="round"/>
<path d="M279.428 83.5153H262.396" stroke="#A6E0F2" stroke-miterlimit="10" stroke-linecap="round" stroke-linejoin="round"/>
<path d="M309.848 113.258H269.864" stroke="#A6E0F2" stroke-miterlimit="10" stroke-linecap="round" stroke-linejoin="round"/>
<path d="M236.712 112.714H252.195" stroke="#A6E0F2" stroke-miterlimit="10" stroke-linecap="round" stroke-linejoin="round"/>
<path d="M290.084 104.734H277.879" stroke="#A6E0F2" stroke-miterlimit="10" stroke-linecap="round" stroke-linejoin="round"/>
<path d="M252.742 124.411H263.398" stroke="#A6E0F2" stroke-miterlimit="10" stroke-linecap="round" stroke-linejoin="round"/>
<path d="M293.363 66.4677H284.255" stroke="#A6E0F2" stroke-miterlimit="10" stroke-linecap="round" stroke-linejoin="round"/>
<path d="M269.409 61.299V0.4534" stroke="#A6E0F2" stroke-miterlimit="10" stroke-linecap="round" stroke-linejoin="round"/>
<path d="M402.292 124.502C402.292 124.502 408.394 115.253 411.582 115.072C414.769 114.89 426.427 122.417 430.617 132.301C434.807 142.185 432.53 149.076 426.974 152.069C421.327 155.061 418.504 156.512 415.589 155.242C412.675 153.973 410.944 152.069 410.944 152.069C410.944 152.069 413.221 157.509 415.862 158.325C418.595 159.142 420.052 161.227 416.318 161.227C412.584 161.227 407.665 155.968 408.303 150.708C409.032 145.449 402.292 124.502 402.292 124.502Z" fill="#A6E0F2" stroke="#A6E0F2" stroke-miterlimit="10"/>
<path d="M329.976 311.754C329.976 311.754 300.011 344.489 298.372 346.394C296.641 348.298 294.182 350.202 294.182 350.202C294.182 350.202 272.506 344.127 268.225 343.673C264.035 343.22 253.015 352.922 250.556 356.278C248.006 359.633 247.368 362.172 247.368 362.172C249.463 362.806 273.507 362.806 278.79 362.806C284.073 362.806 302.015 360.267 303.472 359.633C304.929 358.998 338.719 340.953 338.719 340.953L337.9 312.661C337.809 312.57 333.346 310.938 329.976 311.754Z" fill="white" stroke="#A6E0F2" stroke-miterlimit="10"/>
<path d="M272.688 347.663C272.688 347.663 263.033 354.827 261.121 356.912C259.208 358.998 256.658 362.353 256.658 362.353" stroke="#A6E0F2" stroke-miterlimit="10"/>
<path d="M265.948 345.94C265.948 345.94 255.383 353.285 254.108 356.006C252.833 358.726 251.193 362.534 251.193 362.534" stroke="#A6E0F2" stroke-miterlimit="10"/>
<path d="M278.608 351.653C278.608 351.653 277.97 353.557 277.151 354.827C276.331 356.096 269.136 358 265.584 360.086C262.032 362.172 265.584 364.076 271.048 363.623C276.513 363.169 284.164 363.623 287.533 361.9C290.903 360.177 294.911 355.824 294.911 355.824" fill="white"/>
<path d="M278.608 351.653C278.608 351.653 277.97 353.557 277.151 354.827C276.331 356.096 269.136 358 265.584 360.086C262.032 362.172 265.584 364.076 271.048 363.623C276.513 363.169 284.164 363.623 287.533 361.9C290.903 360.177 294.911 355.824 294.911 355.824" stroke="#A6E0F2" stroke-miterlimit="10"/>
<path d="M334.256 297.518C334.256 297.518 329.156 296.248 328.792 298.152C328.336 300.057 325.422 311.21 326.697 312.661C327.972 314.112 335.532 316.832 336.625 316.651C337.626 316.379 334.256 297.518 334.256 297.518Z" fill="#A6E0F2" stroke="#ECF4F7" stroke-miterlimit="10"/>
<path d="M363.037 207.383C363.037 207.383 353.929 213.821 345.186 219.08C336.533 224.34 333.164 225.065 333.164 228.42C333.164 231.775 332.435 285.457 332.435 285.457C332.435 285.457 331.433 295.069 334.074 303.865C336.716 312.752 337.444 361.809 337.444 361.809H435.626L432.257 329.255C432.257 329.255 443.823 229.327 441.364 225.246C438.996 221.166 410.58 206.295 410.58 206.295L363.037 207.383Z" fill="white" stroke="#A6E0F2" stroke-miterlimit="10"/>
<path d="M337.535 361.99H435.717L432.348 329.437C432.348 329.437 433.167 322.001 434.442 311.029L402.019 311.482C402.019 311.482 395.552 275.301 397.191 262.606C398.831 249.911 408.758 206.748 408.758 206.748L403.203 207.473L386.809 260.158L347.372 256.531L362.764 209.559L361.125 209.287C361.125 209.287 343.82 245.921 338.719 261.971C335.896 270.767 333.801 279.291 332.435 285.095C332.435 285.367 332.435 285.457 332.435 285.457C332.435 285.457 331.433 295.069 334.074 303.865C336.807 312.842 337.535 361.99 337.535 361.99Z" fill="#A6E0F2" stroke="#A6E0F2" stroke-miterlimit="10"/>
<path d="M350.833 361.99C351.47 341.497 353.383 280.742 352.472 277.931C351.835 276.027 355.296 266.052 358.665 257.619L357.755 257.528C355.022 264.42 350.833 275.755 351.652 278.203C352.472 280.651 351.015 330.797 350.013 361.99H350.833Z" fill="#ECF4F7"/>
<path d="M360.305 279.11C360.305 275.936 363.857 264.329 365.77 258.163L364.859 258.072C362.855 264.329 359.394 275.755 359.394 279.11C359.394 282.374 357.481 335.331 356.571 361.9H357.481C358.483 335.331 360.305 282.465 360.305 279.11Z" fill="#ECF4F7"/>
<path d="M367.773 281.377C368.046 279.11 370.323 265.236 371.325 258.707L370.414 258.616C369.322 265.145 367.136 279.019 366.862 281.286C366.498 283.916 363.037 346.847 362.217 361.9H363.128C363.948 346.938 367.5 284.006 367.773 281.377Z" fill="#ECF4F7"/>
<path d="M378.976 259.432L378.065 259.342L370.87 361.99H371.781L378.976 259.432Z" fill="#ECF4F7"/>
<path d="M360.578 210.556C359.394 213.186 356.297 219.715 352.836 227.513C347.372 241.025 340.085 259.523 335.714 272.4C334.348 277.296 333.255 281.739 332.526 285.185C332.526 285.457 332.526 285.548 332.526 285.548C332.526 285.548 332.253 288.54 332.435 292.621C332.617 289.447 332.799 286.999 332.981 285.548C334.439 273.941 360.487 211.191 360.76 210.556H360.578Z" fill="#ECF4F7"/>
<path d="M346.461 276.571C346.734 275.12 349.467 267.14 353.019 257.075L352.108 256.984C348.556 267.049 345.823 274.939 345.55 276.48C345.004 279.926 343.364 335.603 342.545 361.99H343.455C344.275 335.603 345.914 279.926 346.461 276.571Z" fill="#ECF4F7"/>
<path d="M337.262 346.756C337.9 321.82 339.175 282.374 340.905 275.211C341.816 271.402 345.277 261.79 349.375 250.999L355.387 232.773C348.92 249.458 341.543 269.135 340.086 275.029C338.628 281.105 337.535 308.671 336.807 332.157C336.898 337.144 337.08 342.222 337.262 346.756Z" fill="#ECF4F7"/>
<path d="M413.403 311.301H412.493L415.134 361.99H416.045L413.403 311.301Z" fill="#ECF4F7"/>
<path d="M382.346 309.669C382.072 295.251 384.532 271.855 385.898 260.067L384.987 259.977C383.621 271.765 381.162 295.16 381.435 309.669C381.708 325.628 382.528 352.016 382.801 361.99H383.712C383.439 352.016 382.71 325.628 382.346 309.669Z" fill="#ECF4F7"/>
<path d="M421.054 311.119L420.143 311.21L425.152 361.99H426.063L421.054 311.119Z" fill="#ECF4F7"/>
<path d="M405.024 311.391H404.113L406.299 361.99H407.21L405.024 311.391Z" fill="#ECF4F7"/>
<path d="M396.554 276.117C396.554 274.122 396.645 271.493 396.918 268.5C396.918 266.233 397.009 264.148 397.191 262.516C397.556 259.795 398.284 255.533 399.286 250.727C401.654 235.312 405.115 217.539 407.301 206.929L406.39 207.02C402.747 225.246 395.461 263.332 395.734 276.117C396.099 291.079 398.74 348.479 399.377 361.9H400.288C399.559 348.57 396.918 291.17 396.554 276.117Z" fill="#ECF4F7"/>
<path d="M390.998 265.78C392.911 256.621 396.007 238.123 398.558 222.617L396.645 228.874C394.368 242.838 391.818 257.71 390.087 265.599C386.9 280.47 389.177 343.492 389.905 361.9H390.816C389.996 343.582 387.81 280.561 390.998 265.78Z" fill="#ECF4F7"/>
<path d="M382.892 221.438C382.892 221.438 387.537 237.76 388.812 237.125C390.087 236.491 412.675 208.108 412.857 206.204C413.039 204.3 405.571 195.141 405.571 195.141C405.571 195.141 402.383 193.872 400.652 193.872C398.922 193.872 365.952 199.766 365.041 200.854C364.221 201.942 361.853 207.655 360.123 210.375C358.392 213.095 346.279 225.428 347.736 225.609C349.193 225.791 365.223 220.35 365.223 220.35L370.688 236.763C370.688 236.763 378.429 229.871 379.704 228.148C381.162 226.516 382.892 221.438 382.892 221.438Z" fill="#A6E0F2" stroke="white" stroke-miterlimit="10"/>
<path d="M364.768 197.408C364.768 197.408 366.498 204.753 367.682 214.093C368.957 223.433 370.87 236.853 370.87 236.853C370.87 236.853 385.351 215.544 386.353 214.818C387.355 214.093 402.11 196.955 402.11 196.955L403.112 172.199C403.112 172.199 396.007 184.713 389.085 190.335C382.164 195.957 364.768 197.408 364.768 197.408Z" fill="white" stroke="#A6E0F2" stroke-miterlimit="10"/>
<path d="M389.085 190.335C389.085 190.335 382.164 200.945 376.79 205.932C371.507 210.919 367.682 214.093 367.682 214.093L365.223 200.945L389.085 190.335Z" fill="#A6E0F2" stroke="#A6E0F2" stroke-miterlimit="10"/>
<path d="M385.716 329.346L376.517 326.535L376.061 331.794L385.716 329.346Z" fill="white" stroke="#A6E0F2" stroke-miterlimit="10"/>
<path d="M378.52 320.822L377.701 331.25L375.97 352.832L375.242 362.081H349.74L349.011 352.832L347.281 331.25L346.461 320.822H378.52Z" fill="#A6E0F2" stroke="white" stroke-miterlimit="10"/>
<path d="M380.706 315.925H343.638V322.726H380.706V315.925Z" fill="white" stroke="#A6E0F2" stroke-miterlimit="10"/>
<path d="M377.336 312.933H347.736V315.744H377.336V312.933Z" fill="white" stroke="#A6E0F2" stroke-miterlimit="10"/>
<path d="M377.701 331.25H347.281L349.011 352.832H375.97" fill="white"/>
<path d="M377.701 331.25H347.281L349.011 352.832H375.97" stroke="#A6E0F2" stroke-miterlimit="10"/>
<path d="M410.216 264.964L428.522 305.497H460.035C460.035 305.497 446.556 244.198 446.1 240.118C445.645 236.037 446.829 226.244 443.732 224.521C440.636 222.889 432.439 220.168 432.439 220.168" fill="white"/>
<path d="M410.216 264.964L428.522 305.497H460.035C460.035 305.497 446.556 244.198 446.1 240.118C445.645 236.037 446.829 226.244 443.732 224.521C440.636 222.889 432.439 220.168 432.439 220.168" stroke="#A6E0F2" stroke-miterlimit="10"/>
<path d="M416.773 279.291C416.773 279.291 408.394 273.76 405.935 269.226L416.773 279.291Z" fill="white"/>
<path d="M416.773 279.291C416.773 279.291 408.394 273.76 405.935 269.226" stroke="#A6E0F2" stroke-miterlimit="10"/>
<path d="M429.98 312.842C429.98 312.842 404.933 332.973 402.292 333.971C399.651 334.968 396.736 335.875 396.736 335.875C396.736 335.875 387.81 331.522 385.625 329.437C383.439 327.26 362.309 335.149 362.309 335.149L354.84 341.86C354.84 341.86 355.842 344.217 357.755 344.217C359.667 344.217 365.952 339.23 365.952 339.23L375.059 338.777L362.582 347.119L359.212 354.101C359.212 354.101 361.853 356.731 364.039 353.376C366.225 350.021 367.409 349.023 367.409 349.023L379.158 346.031C379.158 346.031 373.329 351.925 372.145 352.65C370.961 353.376 364.859 356.459 366.043 357.819C366.954 358.907 367.955 358.635 369.413 358.182C370.87 357.728 376.152 356.278 376.152 356.278C376.152 356.278 382.164 356.731 383.894 356.731C385.533 356.731 391.636 352.922 391.636 352.922L401.472 347.21C401.472 347.21 437.357 335.24 443.823 331.432C450.29 327.623 460.673 320.369 460.217 317.739C459.58 315.019 429.98 312.842 429.98 312.842Z" fill="white" stroke="#A6E0F2" stroke-miterlimit="10"/>
<path d="M376.061 356.187C376.061 356.187 383.53 353.557 386.171 350.655" stroke="#A6E0F2" stroke-miterlimit="10"/>
<path d="M425.152 304.681L427.065 308.49L428.249 313.477C428.249 313.477 435.444 314.928 442.002 316.107C448.468 317.286 462.677 320.641 462.677 320.641C462.677 320.641 465.045 318.464 464.589 314.928C464.134 311.301 464.589 302.505 463.132 300.057C461.766 297.79 431.892 298.696 425.152 304.681Z" fill="#92E3A9" stroke="#A6E0F2" stroke-miterlimit="10"/>
<path d="M428.613 308.58C428.613 308.58 435.353 304.409 448.559 304.228" stroke="#A6E0F2" stroke-miterlimit="10"/>
<path d="M455.846 308.399C456.939 308.671 458.032 308.943 458.942 309.215" stroke="#A6E0F2" stroke-miterlimit="10"/>
<path d="M443.55 306.676C443.55 306.676 448.013 306.948 452.567 307.764" stroke="#A6E0F2" stroke-miterlimit="10"/>
<path d="M355.113 175.554C351.288 175.554 348.191 178.637 348.191 182.446C348.191 186.255 351.288 189.338 355.113 189.338C358.939 189.338 362.035 186.255 362.035 182.446C362.035 178.637 358.939 175.554 355.113 175.554ZM355.113 187.343C352.381 187.343 350.104 185.076 350.104 182.355C350.104 179.635 352.381 177.368 355.113 177.368C357.846 177.368 360.123 179.635 360.123 182.355C360.123 185.076 357.846 187.343 355.113 187.343Z" stroke="#A6E0F2" stroke-miterlimit="10"/>
<path d="M349.011 154.426C349.011 154.426 350.468 173.832 351.561 179.454C352.654 185.076 364.859 201.126 367.409 202.305C369.959 203.393 372.783 203.121 375.333 202.305C377.883 201.489 394.823 190.788 396.554 186.799C398.284 182.899 400.835 176.643 400.835 176.643C400.835 176.643 408.212 174.92 409.032 170.748C409.851 166.487 409.305 161.136 409.305 161.136L410.125 150.98C410.125 150.98 405.844 134.114 394.823 130.94C383.803 127.857 367.955 133.207 361.489 138.829C355.022 144.542 349.011 154.426 349.011 154.426Z" fill="white" stroke="#A6E0F2" stroke-miterlimit="10"/>
<path d="M359.758 153.973C359.758 153.973 362.491 157.781 363.128 160.502" stroke="#A6E0F2" stroke-miterlimit="10"/>
<path d="M360.76 175.373C360.76 175.373 363.31 178.093 367.5 177.731" stroke="#A6E0F2" stroke-miterlimit="10"/>
<path d="M364.586 185.529C364.586 185.529 373.511 188.068 379.34 181.267" stroke="#A6E0F2" stroke-miterlimit="10"/>
<path d="M371.234 153.338C371.234 153.338 378.612 149.983 383.53 153.519" stroke="#A6E0F2" stroke-miterlimit="10"/>
<path d="M358.483 153.247C358.483 153.247 354.203 151.343 351.47 154.517" stroke="#A6E0F2" stroke-miterlimit="10"/>
<path d="M377.883 164.401C378.587 164.401 379.158 163.264 379.158 161.862C379.158 160.46 378.587 159.323 377.883 159.323C377.179 159.323 376.608 160.46 376.608 161.862C376.608 163.264 377.179 164.401 377.883 164.401Z" fill="#A6E0F2"/>
<path d="M357.39 160.864C357.39 162.315 356.844 163.403 356.115 163.403C355.387 163.403 354.84 162.225 354.84 160.864C354.84 159.414 355.387 158.325 356.115 158.325C356.844 158.325 357.39 159.504 357.39 160.864Z" fill="#A6E0F2"/>
<path d="M406.026 175.554C402.201 175.554 399.104 178.637 399.104 182.446C399.104 186.255 402.201 189.338 406.026 189.338C409.851 189.338 412.948 186.255 412.948 182.446C412.857 178.637 409.851 175.554 406.026 175.554ZM406.026 187.343C403.294 187.343 401.017 185.076 401.017 182.355C401.017 179.635 403.294 177.368 406.026 177.368C408.758 177.368 411.035 179.635 411.035 182.355C411.035 185.076 408.758 187.343 406.026 187.343Z" fill="white" stroke="#A6E0F2" stroke-miterlimit="10"/>
<path d="M384.441 137.469L349.102 154.336C349.102 154.336 337.809 146.174 337.809 138.285C337.809 130.396 356.48 113.802 373.693 112.623C390.907 111.535 395.734 115.162 400.561 118.789C405.388 122.417 420.69 135.112 418.686 144.452C416.682 153.701 409.396 161.046 409.396 161.046C409.396 161.046 409.123 155.696 406.026 157.147C402.929 158.597 403.476 162.769 401.199 162.497C398.922 162.225 397.556 157.963 397.556 157.963C397.556 157.963 383.257 145.63 384.441 137.469Z" fill="#A6E0F2" stroke="#A6E0F2" stroke-miterlimit="10"/>
<path d="M524.154 279.654H405.48V361.99H524.154V279.654Z" fill="#C6EAF6" stroke="#A6E0F2" stroke-miterlimit="10" stroke-linecap="round" stroke-linejoin="round"/>
<path d="M518.143 290.717H411.491V361.99H518.143V290.717Z" fill="#A6E0F2" stroke="#A6E0F2" stroke-miterlimit="10" stroke-linecap="round" stroke-linejoin="round"/>
<path d="M482.258 326.354H447.558V361.99H482.258V326.354Z" fill="#C6EAF6" stroke="#A6E0F2" stroke-miterlimit="10" stroke-linecap="round" stroke-linejoin="round"/>
<path d="M411.491 290.717L405.48 279.654H524.245L518.234 290.717H411.491Z" fill="#EAFCFE" stroke="#A6E0F2" stroke-miterlimit="10" stroke-linecap="round" stroke-linejoin="round"/>
<path d="M588 361.99H0" stroke="#A6E0F2" stroke-miterlimit="10"/>
<path d="M588 377.043H0" stroke="#A6E0F2" stroke-miterlimit="10"/>
<path d="M588 393.547H0" stroke="#A6E0F2" stroke-miterlimit="10"/>
<path d="M281.431 369.335H227.695L222.048 303.23H275.784L281.431 369.335Z" fill="white" stroke="#A6E0F2" stroke-miterlimit="10"/>
<path d="M270.502 369.335H216.857L222.868 291.351H276.604L270.502 369.335Z" fill="white" stroke="#A6E0F2" stroke-miterlimit="10"/>
<path d="M224.963 356.278C224.416 356.278 224.052 356.187 223.688 356.006C223.323 355.824 223.141 355.552 222.959 355.099C222.777 354.736 222.777 354.283 222.777 353.648L224.143 353.376C224.143 353.739 224.143 354.011 224.234 354.283C224.325 354.555 224.325 354.736 224.507 354.827C224.599 354.917 224.781 355.008 225.054 355.008C225.327 355.008 225.509 354.917 225.6 354.827C225.691 354.645 225.783 354.464 225.783 354.283C225.783 353.92 225.783 353.648 225.6 353.376C225.418 353.104 225.236 352.922 224.963 352.65L223.961 351.744C223.688 351.472 223.506 351.2 223.323 350.837C223.141 350.565 223.141 350.111 223.141 349.658C223.232 349.023 223.415 348.479 223.87 348.116C224.325 347.754 224.872 347.572 225.509 347.572C225.874 347.572 226.238 347.663 226.511 347.754C226.784 347.844 226.967 348.026 227.149 348.298C227.331 348.479 227.422 348.751 227.422 349.023C227.513 349.295 227.513 349.567 227.513 349.93L226.147 350.202C226.147 349.93 226.147 349.658 226.147 349.477C226.147 349.295 226.056 349.114 225.965 349.023C225.874 348.933 225.691 348.842 225.509 348.842C225.236 348.842 225.054 348.933 224.963 349.023C224.872 349.205 224.781 349.386 224.781 349.567C224.781 349.839 224.781 350.111 224.872 350.293C224.963 350.474 225.145 350.655 225.327 350.837L226.329 351.744C226.693 352.016 226.967 352.378 227.149 352.741C227.331 353.104 227.422 353.648 227.422 354.192C227.422 354.555 227.24 354.917 227.058 355.28C226.875 355.552 226.602 355.824 226.238 356.006C225.783 356.187 225.327 356.278 224.963 356.278Z" fill="#A6E0F2"/>
<path d="M230.245 356.278C229.608 356.278 229.152 356.187 228.788 355.915C228.424 355.643 228.242 355.371 228.151 354.917C228.06 354.464 227.968 354.011 228.06 353.467L228.333 350.474C228.333 349.93 228.515 349.386 228.697 348.933C228.879 348.479 229.152 348.207 229.517 347.935C229.881 347.663 230.428 347.572 230.974 347.572C231.52 347.572 231.976 347.663 232.34 347.844C232.613 348.026 232.887 348.298 232.978 348.661C233.069 349.023 233.16 349.477 233.069 349.93L232.978 350.655H231.52L231.612 349.93C231.612 349.658 231.612 349.477 231.612 349.295C231.612 349.114 231.52 348.933 231.429 348.842C231.338 348.751 231.156 348.661 230.883 348.661C230.61 348.661 230.428 348.751 230.245 348.842C230.154 348.933 230.063 349.114 229.972 349.295C229.881 349.477 229.881 349.749 229.881 350.021L229.608 353.739C229.608 354.011 229.608 354.283 229.608 354.464C229.608 354.645 229.699 354.827 229.881 354.917C229.972 355.008 230.154 355.099 230.428 355.099C230.701 355.099 230.883 355.008 230.974 354.917C231.065 354.827 231.156 354.645 231.247 354.464C231.247 354.283 231.338 354.011 231.338 353.829L231.429 353.104H232.887L232.796 353.739C232.796 354.283 232.613 354.645 232.522 355.099C232.34 355.461 232.067 355.824 231.794 356.006C231.338 356.187 230.883 356.278 230.245 356.278Z" fill="#A6E0F2"/>
<path d="M233.251 356.187L235.619 347.754H237.258L238.26 356.187H236.803L236.621 354.192H235.164L234.708 356.187H233.251ZM235.437 353.285H236.621L236.348 349.749L235.437 353.285Z" fill="#A6E0F2"/>
<path d="M239.08 356.187L239.718 347.754H240.81L242.541 352.56L242.905 347.754H244.18L243.543 356.187H242.541L240.902 351.109L240.537 356.187H239.08Z" fill="#A6E0F2"/>
<path d="M247.368 356.187L248.006 347.754H249.554L249.281 351.29H251.011L251.284 347.754H252.833L252.195 356.187H250.647L250.92 352.378H249.19L248.916 356.187H247.368Z" fill="#A6E0F2"/>
<path d="M253.47 356.187L254.108 347.754H257.66L257.569 348.842H255.565L255.383 351.29H256.931L256.84 352.378H255.292L255.11 355.189H257.113L257.022 356.278H253.47V356.187Z" fill="#A6E0F2"/>
<path d="M258.024 356.187L258.662 347.754H260.665C261.212 347.754 261.758 347.844 262.123 347.935C262.487 348.026 262.76 348.298 262.942 348.661C263.125 349.023 263.216 349.477 263.125 350.021C263.125 350.383 263.033 350.655 262.942 350.928C262.851 351.2 262.76 351.472 262.578 351.653C262.396 351.834 262.214 352.016 261.941 352.106L262.76 356.278H261.212L260.483 352.378H259.755L259.481 356.278H258.024V356.187ZM259.937 351.29H260.392C260.665 351.29 260.939 351.29 261.121 351.2C261.303 351.109 261.485 351.018 261.576 350.746C261.667 350.565 261.758 350.293 261.758 350.021C261.758 349.567 261.758 349.295 261.576 349.023C261.394 348.842 261.121 348.661 260.665 348.661H260.119L259.937 351.29Z" fill="#A6E0F2"/>
<path d="M263.853 356.187L264.491 347.754H268.043L267.952 348.842H265.948L265.766 351.29H267.314L267.223 352.378H265.675L265.493 355.189H267.496L267.405 356.278H263.853V356.187Z" fill="#A6E0F2"/>
<path d="M243.634 331.25C243.725 330.162 243.816 329.074 243.907 327.986C244.454 327.986 245 327.986 245.547 327.986C245.547 327.442 245.638 326.898 245.638 326.354C245.091 326.354 244.545 326.354 243.998 326.354C243.998 325.809 244.089 325.265 244.089 324.721C245.182 324.721 246.275 324.721 247.368 324.721C247.368 324.177 247.459 323.633 247.459 323.089C248.006 323.089 248.552 323.089 249.099 323.089C249.099 323.633 249.008 324.177 249.008 324.721C249.554 324.721 250.1 324.721 250.647 324.721C250.738 323.633 250.829 322.545 250.92 321.548C251.011 321.548 251.102 321.548 251.102 321.548C252.651 321.548 254.199 321.548 255.747 321.548C255.747 322.092 255.656 322.636 255.656 323.18C256.203 323.18 256.749 323.18 257.296 323.18C257.296 322.636 257.387 322.092 257.387 321.548C256.84 321.548 256.294 321.548 255.747 321.548C255.747 321.003 255.838 320.459 255.838 319.915C254.745 319.915 253.652 319.915 252.56 319.915C252.651 318.827 252.742 317.739 252.833 316.742C251.193 316.742 249.645 316.742 248.006 316.742C248.006 317.286 247.915 317.83 247.915 318.374C246.822 318.374 245.729 318.374 244.727 318.374C244.636 319.462 244.545 320.55 244.454 321.638C245 321.638 245.547 321.638 246.093 321.638C246.093 322.182 246.002 322.726 246.002 323.27C245.455 323.27 244.909 323.27 244.363 323.27C244.363 323.815 244.271 324.359 244.271 324.903C243.725 324.903 243.179 324.903 242.632 324.903C242.632 324.359 242.723 323.815 242.723 323.27C241.084 323.27 239.535 323.27 237.896 323.27C237.896 322.726 237.987 322.182 237.987 321.638C239.626 321.638 241.175 321.638 242.814 321.638C243.179 317.376 243.452 313.024 243.816 308.762C244.363 308.762 244.909 308.762 245.455 308.762C245.364 310.303 245.182 311.845 245.091 313.386C245.091 313.477 245.091 313.477 245.091 313.568C245.638 313.568 246.184 313.568 246.731 313.568C246.822 312.48 246.913 311.482 247.004 310.394C247.55 310.394 248.097 310.394 248.643 310.394C248.552 311.482 248.461 312.48 248.37 313.568C248.916 313.568 249.463 313.568 250.009 313.568C250.009 314.112 249.918 314.656 249.918 315.2C252.651 315.2 255.292 315.2 258.024 315.2C258.024 315.744 257.933 316.288 257.933 316.832C258.48 316.832 259.026 316.832 259.573 316.832C259.573 317.376 259.481 317.92 259.481 318.464C258.935 318.464 258.389 318.464 257.842 318.464C257.842 319.009 257.751 319.553 257.751 320.097C258.297 320.097 258.844 320.097 259.39 320.097C259.299 321.185 259.208 322.273 259.117 323.361C259.664 323.361 260.21 323.361 260.757 323.361C260.665 324.449 260.574 325.537 260.483 326.535C259.937 326.535 259.39 326.535 258.844 326.535C258.753 327.623 258.662 328.711 258.571 329.799C259.117 329.799 259.664 329.799 260.21 329.799C260.21 330.343 260.119 330.887 260.119 331.432C261.212 331.432 262.305 331.432 263.307 331.432C263.307 331.976 263.216 332.52 263.216 333.064C261.576 333.064 260.028 333.064 258.389 333.064C258.297 334.152 258.206 335.24 258.115 336.238C257.569 336.238 257.022 336.238 256.476 336.238C256.476 335.693 256.567 335.149 256.567 334.605C255.474 334.605 254.381 334.605 253.288 334.605C253.288 334.061 253.379 333.517 253.379 332.973C252.833 332.973 252.286 332.973 251.74 332.973C251.74 332.429 251.831 331.885 251.831 331.341C252.924 331.341 253.926 331.341 255.019 331.341C255.019 330.797 255.11 330.253 255.11 329.709C252.468 329.709 249.736 329.709 247.004 329.709C247.004 330.253 246.913 330.797 246.913 331.341C245.82 331.25 244.727 331.25 243.634 331.25ZM253.744 326.444C253.744 325.9 253.835 325.356 253.835 324.812C253.288 324.812 252.742 324.812 252.195 324.812C252.195 325.356 252.104 325.9 252.104 326.444C252.651 326.444 253.197 326.444 253.744 326.444C253.744 326.988 253.652 327.532 253.652 328.076C254.745 328.076 255.838 328.076 256.84 328.076C256.84 327.532 256.931 326.988 256.931 326.444C255.838 326.444 254.745 326.444 253.744 326.444ZM250.465 326.444C249.918 326.444 249.372 326.444 248.825 326.444C248.825 326.988 248.734 327.532 248.734 328.076C249.281 328.076 249.827 328.076 250.374 328.076C250.374 327.442 250.465 326.988 250.465 326.444ZM254.381 318.374C254.928 318.374 255.474 318.374 256.021 318.374C256.021 317.83 256.112 317.286 256.112 316.742C255.565 316.742 255.019 316.742 254.472 316.742C254.381 317.286 254.381 317.83 254.381 318.374Z" fill="#A6E0F2"/>
<path d="M230.428 313.568C230.701 309.85 230.974 306.041 231.338 302.324C235.073 302.324 238.898 302.324 242.632 302.324C242.359 306.041 242.086 309.85 241.721 313.568C237.987 313.568 234.253 313.568 230.428 313.568ZM232.796 303.865C232.613 306.586 232.34 309.215 232.158 311.936C234.89 311.936 237.532 311.936 240.264 311.936C240.446 309.215 240.719 306.586 240.902 303.865C238.169 303.865 235.528 303.865 232.796 303.865Z" fill="#A6E0F2"/>
<path d="M264.4 313.568C260.665 313.568 256.84 313.568 253.106 313.568C253.379 309.85 253.652 306.041 254.017 302.324C257.751 302.324 261.576 302.324 265.31 302.324C264.946 306.041 264.673 309.759 264.4 313.568ZM263.489 303.865C260.757 303.865 258.115 303.865 255.383 303.865C255.201 306.586 254.928 309.215 254.745 311.936C257.478 311.936 260.119 311.936 262.851 311.936C263.125 309.215 263.307 306.586 263.489 303.865Z" fill="#A6E0F2"/>
<path d="M229.608 324.812C233.342 324.812 237.167 324.812 240.902 324.812C240.628 328.53 240.355 332.338 239.991 336.056C236.257 336.056 232.431 336.056 228.697 336.056C228.97 332.338 229.335 328.53 229.608 324.812ZM239.171 326.444C236.439 326.444 233.797 326.444 231.065 326.444C230.883 329.165 230.61 331.794 230.428 334.515C233.16 334.515 235.801 334.515 238.534 334.515C238.716 331.794 238.898 329.074 239.171 326.444Z" fill="#A6E0F2"/>
<path d="M245.364 308.671C245.455 307.583 245.547 306.495 245.638 305.497C245.091 305.497 244.545 305.497 243.998 305.497C244.089 304.409 244.18 303.321 244.271 302.324C246.913 302.324 249.645 302.324 252.377 302.324C252.286 303.412 252.195 304.409 252.104 305.497C251.558 305.497 251.011 305.497 250.465 305.497C250.465 306.041 250.374 306.586 250.374 307.13C250.92 307.13 251.467 307.13 252.013 307.13C251.922 308.218 251.831 309.306 251.74 310.303C251.193 310.303 250.647 310.303 250.1 310.303C250.1 309.759 250.191 309.215 250.191 308.671C249.645 308.671 249.099 308.671 248.552 308.671C248.552 308.127 248.643 307.583 248.643 307.039C248.097 307.039 247.55 307.039 247.004 307.039C247.004 307.583 246.913 308.127 246.913 308.671C246.457 308.671 245.911 308.671 245.364 308.671ZM247.277 305.497C247.823 305.497 248.37 305.497 248.916 305.497C248.916 304.953 249.007 304.409 249.007 303.865C248.461 303.865 247.915 303.865 247.368 303.865C247.368 304.409 247.277 304.953 247.277 305.497Z" fill="#A6E0F2"/>
<path d="M238.26 316.742C238.26 317.286 238.169 317.83 238.169 318.374C239.262 318.374 240.355 318.374 241.357 318.374C241.357 318.918 241.266 319.462 241.266 320.006C239.626 320.006 238.078 320.006 236.439 320.006C236.348 321.094 236.257 322.182 236.165 323.18C233.98 323.18 231.885 323.18 229.699 323.18C229.79 322.092 229.881 321.094 229.972 320.006C230.519 320.006 231.065 320.006 231.612 320.006C231.612 320.55 231.52 321.094 231.52 321.638C232.613 321.638 233.706 321.638 234.799 321.638C234.89 320.006 235.073 318.464 235.164 316.832C236.165 316.742 237.258 316.742 238.26 316.742Z" fill="#A6E0F2"/>
<path d="M243.634 331.25C243.634 331.794 243.543 332.338 243.543 332.882C244.089 332.882 244.636 332.882 245.182 332.882C245.182 333.426 245.091 333.971 245.091 334.515C245.638 334.515 246.184 334.515 246.731 334.515C246.731 335.059 246.639 335.603 246.639 336.147C245 336.147 243.452 336.147 241.812 336.147C241.903 334.515 242.086 332.973 242.177 331.341C242.541 331.25 243.087 331.25 243.634 331.25Z" fill="#A6E0F2"/>
<path d="M235.073 316.742C233.98 316.742 232.887 316.742 231.885 316.742C231.885 317.286 231.794 317.83 231.794 318.374C231.247 318.374 230.701 318.374 230.154 318.374C230.245 317.286 230.336 316.288 230.428 315.2C232.067 315.2 233.615 315.2 235.255 315.2C235.164 315.653 235.073 316.197 235.073 316.742Z" fill="#A6E0F2"/>
<path d="M263.853 320.006C263.307 320.006 262.76 320.006 262.214 320.006C262.305 318.918 262.396 317.92 262.487 316.832C261.941 316.832 261.394 316.832 260.848 316.832C260.848 316.288 260.939 315.744 260.939 315.2C262.032 315.2 263.034 315.2 264.126 315.2C264.126 316.742 264.035 318.374 263.853 320.006Z" fill="#A6E0F2"/>
<path d="M238.26 316.742C238.26 316.197 238.351 315.653 238.351 315.109C239.444 315.109 240.537 315.109 241.539 315.109C241.539 315.653 241.448 316.197 241.448 316.742C240.446 316.742 239.353 316.742 238.26 316.742Z" fill="#A6E0F2"/>
<path d="M260.392 323.18C260.392 322.636 260.483 322.092 260.483 321.548C261.03 321.548 261.576 321.548 262.123 321.548C262.123 322.092 262.032 322.636 262.032 323.18C261.485 323.18 260.939 323.18 260.392 323.18Z" fill="#A6E0F2"/>
<path d="M261.941 324.812C262.487 324.812 263.033 324.812 263.58 324.812C263.58 325.356 263.489 325.9 263.489 326.444C262.942 326.444 262.396 326.444 261.849 326.444C261.849 325.9 261.849 325.356 261.941 324.812Z" fill="#A6E0F2"/>
<path d="M249.827 313.568C249.827 313.024 249.918 312.48 249.918 311.936C250.465 311.936 251.011 311.936 251.558 311.936C251.558 312.48 251.467 313.024 251.467 313.568C250.92 313.568 250.374 313.568 249.827 313.568Z" fill="#A6E0F2"/>
<path d="M243.907 327.986C243.361 327.986 242.814 327.986 242.268 327.986C242.268 327.442 242.359 326.898 242.359 326.354C242.905 326.354 243.452 326.354 243.998 326.354C243.998 326.988 243.907 327.532 243.907 327.986Z" fill="#A6E0F2"/>
<path d="M259.937 329.618C259.937 329.074 260.028 328.53 260.028 327.986C260.574 327.986 261.121 327.986 261.667 327.986C261.667 328.53 261.576 329.074 261.576 329.618C261.03 329.618 260.483 329.618 259.937 329.618Z" fill="#A6E0F2"/>
<path d="M259.208 318.374C259.755 318.374 260.301 318.374 260.848 318.374C260.848 318.918 260.757 319.462 260.757 320.006C260.21 320.006 259.664 320.006 259.117 320.006C259.117 319.462 259.117 318.918 259.208 318.374Z" fill="#A6E0F2"/>
<path d="M249.827 334.424C249.281 334.424 248.734 334.424 248.188 334.424C248.188 333.88 248.279 333.336 248.279 332.792C248.825 332.792 249.372 332.792 249.918 332.792C249.918 333.426 249.918 333.88 249.827 334.424Z" fill="#A6E0F2"/>
<path d="M253.106 334.424C253.106 334.968 253.015 335.512 253.015 336.056C252.468 336.056 251.922 336.056 251.375 336.056C251.375 335.512 251.467 334.968 251.467 334.424C252.013 334.424 252.559 334.424 253.106 334.424Z" fill="#A6E0F2"/>
<path d="M262.669 336.056C262.123 336.056 261.576 336.056 261.03 336.056C261.03 335.512 261.121 334.968 261.121 334.424C261.667 334.424 262.214 334.424 262.76 334.424C262.76 334.968 262.669 335.512 262.669 336.056Z" fill="#A6E0F2"/>
<path d="M250.829 321.548C250.283 321.548 249.736 321.548 249.19 321.548C249.19 321.003 249.281 320.459 249.281 319.915C249.827 319.915 250.374 319.915 250.92 319.915C250.92 320.55 250.92 321.094 250.829 321.548Z" fill="#A6E0F2"/>
<path d="M238.807 310.303C237.167 310.303 235.619 310.303 233.98 310.303C234.071 308.671 234.253 307.13 234.344 305.497C235.983 305.497 237.532 305.497 239.171 305.497C238.989 307.13 238.898 308.671 238.807 310.303Z" fill="#A6E0F2"/>
<path d="M256.567 310.303C256.658 308.671 256.84 307.13 256.931 305.497C258.571 305.497 260.119 305.497 261.758 305.497C261.667 307.13 261.485 308.671 261.394 310.303C259.846 310.303 258.206 310.303 256.567 310.303Z" fill="#A6E0F2"/>
<path d="M232.158 332.882C232.249 331.25 232.431 329.709 232.522 328.076C234.162 328.076 235.71 328.076 237.349 328.076C237.258 329.709 237.076 331.25 236.985 332.882C235.437 332.882 233.797 332.882 232.158 332.882Z" fill="#A6E0F2"/>
<path d="M236.348 298.424H229.244L228.606 306.223" stroke="#92E3A9" stroke-miterlimit="10"/>
<path d="M262.032 298.424H269.136L268.498 306.223" stroke="#92E3A9" stroke-miterlimit="10"/>
<path d="M233.16 339.411H226.056L226.693 331.613" stroke="#92E3A9" stroke-miterlimit="10"/>
<path d="M258.844 339.411H265.948L266.586 331.613" stroke="#92E3A9" stroke-miterlimit="10"/>
<path d="M164.123 287.452C164.123 287.452 171.409 279.019 172.684 278.475C173.959 277.84 190.991 269.498 190.991 269.498L186.255 293.528L160.115 305.588L164.123 287.452Z" fill="white" stroke="#A6E0F2" stroke-miterlimit="10"/>
<path d="M209.844 305.952L186.619 301.69C184.706 301.327 183.522 299.513 183.796 297.609L194.087 242.386C194.452 240.481 196.273 239.303 198.186 239.575L221.411 243.837C223.323 244.199 224.507 246.013 224.234 247.917L213.942 303.141C213.487 305.045 211.756 306.224 209.844 305.952Z" fill="white" stroke="#A6E0F2" stroke-miterlimit="10"/>
<path d="M201.1 277.387C201.282 276.661 201.374 275.936 201.556 275.211C201.92 275.301 202.193 275.301 202.558 275.392C202.649 275.029 202.74 274.667 202.74 274.304C202.375 274.213 202.102 274.213 201.738 274.122C201.829 273.76 201.829 273.397 201.92 273.034C202.558 273.125 203.195 273.306 203.924 273.397C204.015 273.034 204.106 272.672 204.106 272.309C204.47 272.4 204.743 272.4 205.108 272.49C205.017 272.853 205.017 273.216 204.926 273.578C205.29 273.669 205.563 273.669 205.927 273.76C206.11 273.034 206.201 272.309 206.292 271.583H206.383C207.294 271.765 208.295 271.946 209.206 272.128C209.115 272.49 209.115 272.853 209.024 273.216C209.388 273.306 209.662 273.306 210.026 273.397C210.117 273.034 210.117 272.672 210.208 272.309C209.844 272.218 209.571 272.218 209.206 272.128C209.297 271.765 209.297 271.402 209.388 271.039C208.751 270.949 208.113 270.767 207.385 270.677C207.567 269.951 207.658 269.226 207.749 268.5C206.747 268.319 205.745 268.138 204.834 267.956C204.743 268.319 204.743 268.682 204.652 269.044C204.015 268.954 203.377 268.772 202.74 268.682C202.558 269.407 202.466 270.133 202.284 270.858C202.649 270.949 202.922 270.949 203.286 271.039C203.195 271.402 203.195 271.765 203.104 272.128C202.74 272.037 202.466 272.037 202.102 271.946C202.011 272.309 201.92 272.672 201.92 273.034C201.556 272.944 201.282 272.944 200.918 272.853C201.009 272.49 201.009 272.128 201.1 271.765C200.098 271.583 199.097 271.402 198.186 271.221C198.277 270.858 198.277 270.495 198.368 270.133C199.37 270.314 200.281 270.495 201.282 270.677C201.829 267.775 202.375 264.964 202.922 262.062C203.286 262.153 203.559 262.153 203.924 262.244C203.742 263.241 203.559 264.329 203.377 265.327V265.417C203.742 265.508 204.015 265.508 204.379 265.599C204.47 264.873 204.652 264.148 204.743 263.422C205.108 263.513 205.381 263.513 205.745 263.604C205.654 264.329 205.472 265.055 205.381 265.78C205.745 265.871 206.019 265.871 206.383 265.961C206.292 266.324 206.292 266.687 206.201 267.05C207.84 267.322 209.479 267.684 211.119 267.956C211.028 268.319 211.028 268.682 210.937 269.044C211.301 269.135 211.574 269.135 211.939 269.226C211.847 269.589 211.756 269.951 211.756 270.314C211.392 270.223 211.119 270.223 210.755 270.133C210.663 270.495 210.572 270.858 210.572 271.221C210.937 271.311 211.21 271.311 211.574 271.402C211.483 272.128 211.301 272.853 211.119 273.578C211.483 273.669 211.756 273.669 212.121 273.76C212.03 274.485 211.847 275.211 211.756 275.936C211.392 275.845 211.119 275.845 210.755 275.755C210.572 276.48 210.481 277.206 210.299 277.931C210.663 278.022 210.937 278.022 211.301 278.112C211.21 278.475 211.21 278.838 211.119 279.2C211.756 279.291 212.394 279.473 213.123 279.563C213.032 279.926 213.032 280.289 212.94 280.651C211.939 280.47 211.028 280.289 210.026 280.107C209.844 280.833 209.753 281.558 209.662 282.284C209.297 282.193 209.024 282.193 208.66 282.102C208.751 281.739 208.751 281.377 208.842 281.014C208.204 280.923 207.567 280.742 206.838 280.651C206.929 280.289 206.929 279.926 207.02 279.563C206.656 279.473 206.383 279.473 206.018 279.382C206.11 279.019 206.11 278.656 206.201 278.294C206.838 278.384 207.476 278.566 208.113 278.656C208.204 278.294 208.204 277.931 208.295 277.568C206.656 277.296 205.017 276.934 203.377 276.661C203.286 277.024 203.286 277.387 203.195 277.75C202.375 277.659 201.738 277.568 201.1 277.387ZM207.567 275.301C207.658 274.939 207.658 274.576 207.749 274.213C207.385 274.122 207.111 274.122 206.747 274.032C206.656 274.395 206.656 274.757 206.565 275.12C206.929 275.211 207.294 275.211 207.567 275.301C207.476 275.664 207.476 276.027 207.385 276.389C208.022 276.48 208.66 276.661 209.297 276.752C209.388 276.389 209.388 276.027 209.479 275.664C208.842 275.573 208.204 275.392 207.567 275.301ZM205.654 274.939C205.29 274.848 205.017 274.848 204.652 274.757C204.561 275.12 204.561 275.483 204.47 275.845C204.834 275.936 205.108 275.936 205.472 276.027C205.472 275.664 205.563 275.301 205.654 274.939ZM208.66 269.861C209.024 269.951 209.297 269.951 209.662 270.042C209.753 269.679 209.753 269.316 209.844 268.954C209.479 268.863 209.206 268.863 208.842 268.772C208.751 269.226 208.66 269.498 208.66 269.861Z" fill="#A6E0F2"/>
<path d="M194.543 263.876C194.998 261.337 195.453 258.888 196 256.349C198.277 256.803 200.554 257.256 202.831 257.619C202.375 260.158 201.92 262.606 201.374 265.145C199.097 264.783 196.82 264.329 194.543 263.876ZM196.729 257.619C196.364 259.432 196.091 261.246 195.727 262.969C197.366 263.241 199.005 263.604 200.645 263.876C201.009 262.062 201.282 260.249 201.647 258.526C200.007 258.254 198.368 257.891 196.729 257.619Z" fill="#A6E0F2"/>
<path d="M215.126 267.775C212.849 267.322 210.572 266.868 208.295 266.505C208.751 263.966 209.206 261.518 209.753 258.979C212.03 259.432 214.307 259.886 216.584 260.249C216.037 262.788 215.582 265.236 215.126 267.775ZM215.4 261.155C213.76 260.883 212.121 260.521 210.481 260.249C210.117 262.062 209.844 263.876 209.479 265.599C211.119 265.871 212.758 266.233 214.398 266.505C214.671 264.692 215.035 262.878 215.4 261.155Z" fill="#A6E0F2"/>
<path d="M193.085 271.402C195.362 271.855 197.639 272.309 199.916 272.672C199.461 275.211 199.005 277.659 198.459 280.198C196.182 279.745 193.905 279.291 191.628 278.928C192.084 276.48 192.63 273.941 193.085 271.402ZM198.732 273.669C197.093 273.397 195.453 273.034 193.814 272.762C193.45 274.576 193.177 276.389 192.812 278.112C194.452 278.384 196.091 278.747 197.73 279.019C198.095 277.206 198.368 275.392 198.732 273.669Z" fill="#A6E0F2"/>
<path d="M203.924 262.334C204.015 261.609 204.197 260.883 204.288 260.158C203.924 260.067 203.651 260.067 203.286 259.977C203.468 259.251 203.559 258.526 203.651 257.8C205.29 258.072 206.929 258.435 208.569 258.707C208.478 259.432 208.295 260.158 208.204 260.883C207.84 260.793 207.567 260.793 207.203 260.702C207.111 261.065 207.111 261.427 207.02 261.79C207.385 261.881 207.658 261.881 208.022 261.971C207.84 262.697 207.749 263.422 207.658 264.148C207.294 264.057 207.02 264.057 206.656 263.966C206.747 263.604 206.747 263.241 206.838 262.878C206.474 262.788 206.201 262.788 205.836 262.697C205.927 262.334 205.927 261.971 206.019 261.609C205.654 261.518 205.381 261.518 205.017 261.427C204.926 261.79 204.926 262.153 204.835 262.516C204.561 262.425 204.288 262.425 203.924 262.334ZM205.381 260.339C205.745 260.43 206.019 260.43 206.383 260.521C206.474 260.158 206.474 259.795 206.565 259.432C206.201 259.342 205.927 259.342 205.563 259.251C205.472 259.614 205.381 259.977 205.381 260.339Z" fill="#A6E0F2"/>
<path d="M199.005 266.959C198.914 267.322 198.914 267.684 198.823 268.047C199.461 268.138 200.098 268.319 200.827 268.41C200.736 268.772 200.736 269.135 200.645 269.498C199.643 269.316 198.732 269.135 197.73 268.954C197.548 269.679 197.457 270.405 197.366 271.13C196.091 270.858 194.725 270.677 193.45 270.405C193.541 269.679 193.723 268.954 193.814 268.228C194.178 268.319 194.452 268.319 194.816 268.41C194.725 268.772 194.725 269.135 194.634 269.498C195.271 269.589 195.909 269.77 196.637 269.861C196.82 268.772 197.002 267.684 197.275 266.596C197.73 266.687 198.368 266.868 199.005 266.959Z" fill="#A6E0F2"/>
<path d="M201.1 277.387C201.009 277.75 201.009 278.112 200.918 278.475C201.282 278.566 201.556 278.566 201.92 278.656C201.829 279.019 201.829 279.382 201.738 279.745C202.102 279.835 202.375 279.835 202.74 279.926C202.649 280.289 202.649 280.651 202.558 281.014C201.556 280.833 200.645 280.651 199.643 280.47C199.825 279.382 200.007 278.294 200.281 277.206C200.463 277.296 200.736 277.387 201.1 277.387Z" fill="#A6E0F2"/>
<path d="M197.002 266.596C196.364 266.505 195.727 266.324 194.998 266.233C194.907 266.596 194.907 266.959 194.816 267.322C194.452 267.231 194.178 267.231 193.814 267.14C193.905 266.415 194.087 265.689 194.178 264.964C195.18 265.145 196.091 265.327 197.093 265.508C197.184 265.871 197.093 266.233 197.002 266.596Z" fill="#A6E0F2"/>
<path d="M214.307 272.128C213.942 272.037 213.669 272.037 213.305 271.946C213.396 271.221 213.578 270.495 213.669 269.77C213.305 269.679 213.032 269.679 212.667 269.588C212.758 269.226 212.758 268.863 212.849 268.5C213.487 268.591 214.124 268.772 214.762 268.863C214.671 269.951 214.489 271.039 214.307 272.128Z" fill="#A6E0F2"/>
<path d="M199.005 266.959C199.097 266.596 199.097 266.233 199.188 265.871C199.825 265.961 200.463 266.143 201.1 266.233C201.009 266.596 201.009 266.959 200.918 267.322C200.281 267.231 199.643 267.049 199.005 266.959Z" fill="#A6E0F2"/>
<path d="M211.939 273.85C212.03 273.488 212.03 273.125 212.121 272.762C212.485 272.853 212.758 272.853 213.123 272.944C213.032 273.306 213.032 273.669 212.94 274.032C212.576 274.032 212.212 273.941 211.939 273.85Z" fill="#A6E0F2"/>
<path d="M212.667 275.12C213.032 275.211 213.305 275.211 213.669 275.301C213.578 275.664 213.578 276.027 213.487 276.389C213.123 276.299 212.849 276.299 212.485 276.208C212.576 275.845 212.667 275.483 212.667 275.12Z" fill="#A6E0F2"/>
<path d="M206.292 266.143C206.383 265.78 206.383 265.417 206.474 265.055C206.838 265.145 207.111 265.145 207.476 265.236C207.385 265.599 207.385 265.961 207.294 266.324C206.929 266.233 206.565 266.143 206.292 266.143Z" fill="#A6E0F2"/>
<path d="M201.465 275.301C201.1 275.211 200.827 275.211 200.463 275.12C200.554 274.757 200.554 274.394 200.645 274.032C201.009 274.122 201.282 274.122 201.647 274.213C201.647 274.576 201.556 274.939 201.465 275.301Z" fill="#A6E0F2"/>
<path d="M211.119 278.203C211.21 277.84 211.21 277.478 211.301 277.115C211.665 277.206 211.939 277.206 212.303 277.296C212.212 277.659 212.212 278.022 212.121 278.384C211.756 278.294 211.392 278.294 211.119 278.203Z" fill="#A6E0F2"/>
<path d="M211.574 270.495C211.939 270.586 212.212 270.586 212.576 270.677C212.485 271.039 212.485 271.402 212.394 271.765C212.03 271.674 211.756 271.674 211.392 271.583C211.392 271.221 211.483 270.858 211.574 270.495Z" fill="#A6E0F2"/>
<path d="M204.561 280.289C204.197 280.198 203.924 280.198 203.559 280.107C203.65 279.745 203.65 279.382 203.742 279.019C204.106 279.11 204.379 279.11 204.743 279.2C204.743 279.563 204.652 279.926 204.561 280.289Z" fill="#A6E0F2"/>
<path d="M206.565 280.651C206.474 281.014 206.474 281.377 206.383 281.739C206.019 281.649 205.745 281.649 205.381 281.558C205.472 281.195 205.472 280.833 205.563 280.47C205.927 280.561 206.201 280.651 206.565 280.651Z" fill="#A6E0F2"/>
<path d="M212.212 282.918C211.848 282.828 211.574 282.828 211.21 282.737C211.301 282.374 211.301 282.012 211.392 281.649C211.756 281.739 212.03 281.739 212.394 281.83C212.394 282.193 212.303 282.556 212.212 282.918Z" fill="#A6E0F2"/>
<path d="M206.201 271.674C205.836 271.583 205.563 271.583 205.199 271.493C205.29 271.13 205.29 270.767 205.381 270.405C205.745 270.495 206.018 270.495 206.383 270.586C206.383 270.949 206.292 271.311 206.201 271.674Z" fill="#A6E0F2"/>
<path d="M199.825 262.697C198.823 262.516 197.913 262.334 196.911 262.153C197.093 261.065 197.275 259.977 197.548 258.888C198.55 259.07 199.461 259.251 200.463 259.432C200.19 260.521 200.007 261.609 199.825 262.697Z" fill="#A6E0F2"/>
<path d="M210.664 264.692C210.846 263.604 211.028 262.516 211.301 261.427C212.303 261.609 213.214 261.79 214.216 261.971C214.033 263.06 213.851 264.148 213.578 265.236C212.576 265.055 211.574 264.873 210.664 264.692Z" fill="#A6E0F2"/>
<path d="M193.996 277.206C194.178 276.117 194.361 275.029 194.634 273.941C195.636 274.122 196.546 274.304 197.548 274.485C197.366 275.573 197.184 276.661 196.911 277.75C196 277.568 194.998 277.387 193.996 277.206Z" fill="#A6E0F2"/>
<path d="M199.279 254.354L194.998 253.538L193.996 258.707" stroke="#92E3A9" stroke-miterlimit="10"/>
<path d="M214.944 257.256L219.225 258.072L218.223 263.332" stroke="#92E3A9" stroke-miterlimit="10"/>
<path d="M194.087 281.74L189.807 280.923L190.717 275.755" stroke="#92E3A9" stroke-miterlimit="10"/>
<path d="M209.662 284.732L213.942 285.548L214.944 280.289" stroke="#92E3A9" stroke-miterlimit="10"/>
<path d="M223.323 252.269L224.143 247.916C224.507 246.012 223.232 244.198 221.32 243.836L198.095 239.574C196.182 239.211 194.361 240.481 193.996 242.385L193.177 246.737L223.323 252.269Z" fill="#A6E0F2" stroke="#A6E0F2" stroke-miterlimit="10"/>
<path d="M184.342 294.888L183.887 297.608C183.522 299.513 184.797 301.326 186.71 301.689L209.935 305.951C211.848 306.313 213.669 305.044 214.033 303.14L214.489 300.419L184.342 294.888Z" fill="#A6E0F2" stroke="#A6E0F2" stroke-miterlimit="10"/>
<path d="M176.783 284.369C176.783 284.369 184.888 285.548 187.439 286.001C189.898 286.455 200.007 283.462 200.827 285.004C201.647 286.545 200.463 288.631 198.095 290.263C195.818 291.805 186.255 293.528 186.255 293.528C186.255 293.528 183.249 298.696 177.511 300.51C171.682 302.324 162.574 302.052 162.574 302.052" fill="white"/>
<path d="M176.783 284.369C176.783 284.369 184.888 285.548 187.439 286.001C189.898 286.455 200.007 283.462 200.827 285.004C201.647 286.545 200.463 288.631 198.095 290.263C195.818 291.805 186.255 293.528 186.255 293.528C186.255 293.528 183.249 298.696 177.511 300.51C171.682 302.324 162.574 302.052 162.574 302.052" stroke="#A6E0F2" stroke-miterlimit="10"/>
<path d="M44.1728 393.547H180.79C181.154 389.103 182.338 365.618 173.686 333.789C164.032 298.334 164.032 263.966 164.032 263.966C164.032 263.966 170.498 249.276 162.301 237.216C154.104 225.156 143.357 221.619 143.357 221.619C143.357 221.619 84.2472 203.393 73.2268 204.753C73.2268 204.753 45.539 228.148 43.2621 229.508C40.9851 230.959 34.7918 240.481 34.7918 246.103C34.7918 251.725 45.8123 330.887 47.2695 341.044C48.5446 350.474 44.8104 387.743 44.1728 393.547Z" fill="#A6E0F2" stroke="#EAFCFE" stroke-miterlimit="10"/>
<path d="M63.026 254.899C63.026 254.899 74.0465 297.699 85.6134 313.205L63.026 254.899Z" fill="#A6E0F2"/>
<path d="M63.026 254.899C63.026 254.899 74.0465 297.699 85.6134 313.205" stroke="#EAFCFE" stroke-miterlimit="10"/>
<path d="M74.684 298.878C74.684 298.878 81.7881 313.568 89.7119 320.278L74.684 298.878Z" fill="#A6E0F2"/>
<path d="M74.684 298.878C74.684 298.878 81.7881 313.568 89.7119 320.278" stroke="#EAFCFE" stroke-miterlimit="10"/>
<path d="M174.141 132.21C174.141 132.21 173.868 150.346 172.138 152.522C170.407 154.698 167.675 158.053 167.857 159.867C168.039 161.681 171.955 172.925 172.138 174.557C172.32 176.098 165.853 179.182 165.853 179.182C165.853 179.182 155.197 200.31 154.104 201.942C153.011 203.574 150.461 203.302 147.546 202.667C144.632 202.033 139.349 198.768 139.349 198.768L129.058 217.992C129.058 217.992 112.481 204.481 105.013 199.403C97.5446 194.325 88.3457 189.156 88.3457 189.156L98 175.736C98 175.736 102.463 170.023 103.647 160.23C104.831 150.527 107.472 137.469 127.965 127.495C148.366 117.429 168.585 128.039 174.141 132.21Z" fill="white" stroke="#A6E0F2" stroke-miterlimit="10"/>
<path d="M159.113 131.757C159.113 131.757 160.115 140.643 158.658 142.91C157.201 145.177 144.45 146.991 144.45 148.532C144.359 150.074 144.45 157.691 142.173 157.509C139.896 157.328 139.349 157.691 138.621 157.056C137.983 156.421 139.258 149.983 133.885 150.98C128.511 151.978 123.593 159.958 123.684 164.582C123.775 169.207 127.965 172.562 127.965 172.562C127.965 172.562 127.509 174.738 118.766 177.64C109.931 180.542 99.6394 178.456 97.9089 175.554C96.1784 172.653 91.0781 135.293 89.9851 125.409C88.8922 115.434 97.1803 97.2078 111.662 92.8552C126.143 88.5933 143.175 90.951 143.175 90.951C143.175 90.951 151.918 85.7823 159.569 88.8654C167.219 91.9484 168.95 100.926 168.95 100.926C168.95 100.926 183.158 100.382 186.983 109.631C190.809 118.789 187.985 129.036 182.976 133.389C177.967 137.741 169.405 133.207 165.58 131.757C161.664 130.306 159.113 131.757 159.113 131.757Z" fill="#A6E0F2" stroke="#A6E0F2" stroke-miterlimit="10"/>
<path d="M172.138 152.522C172.138 152.522 167.948 147.625 163.394 152.613" stroke="#A6E0F2" stroke-miterlimit="10"/>
<path d="M165.671 159.051C165.398 160.502 164.578 161.499 163.758 161.409C163.03 161.227 162.665 159.958 162.939 158.597C163.212 157.147 164.032 156.149 164.851 156.24C165.58 156.33 165.944 157.6 165.671 159.051Z" fill="#A6E0F2"/>
<path d="M159.387 184.26C159.387 184.26 156.108 185.348 153.375 180.995" stroke="#A6E0F2" stroke-miterlimit="10"/>
<path d="M139.258 198.678C139.258 198.678 135.797 195.413 133.976 191.514C132.154 187.615 130.333 183.897 130.333 183.897C130.333 183.897 130.515 198.224 131.061 201.942C131.608 205.66 133.065 209.74 133.065 209.74L139.258 198.678Z" fill="#A6E0F2" stroke="#A6E0F2" stroke-miterlimit="10"/>
<path d="M81.1505 194.597C81.1505 194.597 84.4293 188.612 86.1598 188.34C87.8903 188.068 115.851 195.141 122.136 198.587C128.42 202.123 134.704 210.919 134.704 210.919L81.1505 194.597Z" fill="white" stroke="#A6E0F2" stroke-miterlimit="10"/>
<path d="M80.1487 192.33C80.1487 192.33 95.9963 196.32 112.937 201.398C129.786 206.385 136.89 211.645 137.892 213.186C138.894 214.728 143.448 221.71 143.448 221.71C143.448 221.71 129.331 218.99 102.918 212.914C76.5056 206.929 71.223 206.113 71.223 206.113C71.223 206.113 78.8736 194.325 80.1487 192.33Z" fill="#A6E0F2" stroke="#EAFCFE" stroke-miterlimit="10"/>
<path d="M110.296 264.238C110.296 264.238 120.496 322.273 121.316 328.983C122.136 335.784 120.496 353.467 121.316 367.25C122.136 380.035 125.323 391.824 125.779 393.547H175.872C175.416 391.189 171.318 367.794 170.498 355.733C169.678 343.038 169.405 294.888 167.675 283.1C165.944 271.311 166.582 263.966 166.582 263.966C166.582 263.966 170.225 245.105 166.035 236.128C161.755 227.151 144.814 224.34 141.444 223.977" fill="#A6E0F2"/>
<path d="M110.296 264.238C110.296 264.238 120.496 322.273 121.316 328.983C122.136 335.784 120.496 353.467 121.316 367.25C122.136 380.035 125.323 391.824 125.779 393.547H175.872C175.416 391.189 171.318 367.794 170.498 355.733C169.678 343.038 169.405 294.888 167.675 283.1C165.944 271.311 166.582 263.966 166.582 263.966C166.582 263.966 170.225 245.105 166.035 236.128C161.755 227.151 144.814 224.34 141.444 223.977" stroke="#EAFCFE" stroke-miterlimit="10"/>
<path d="M134.249 232.41C134.249 232.41 120.132 242.929 116.58 264.057L134.249 232.41Z" fill="#A6E0F2"/>
<path d="M134.249 232.41C134.249 232.41 120.132 242.929 116.58 264.057" stroke="#EAFCFE" stroke-miterlimit="10"/>
</g>
<defs>
<clipPath id="clip0_30_1201">
<rect width="588" height="394" fill="white"/>
</clipPath>
</defs>
</svg>
