<svg width="102" height="97" viewBox="0 0 102 97" fill="none" xmlns="http://www.w3.org/2000/svg">
<path d="M102 48.293C102 48.4258 102 48.5586 102 48.6914C101.281 51.6932 99.0425 53.5262 96.8311 55.4122C95.7387 56.342 94.6729 57.2983 93.6071 58.2546C91.2358 60.3798 90.5697 63.0362 91.2358 66.0911C91.7687 68.5616 92.3282 71.0587 92.8078 73.5557C93.5538 77.4076 92.0085 79.7452 88.1185 80.4093C85.6939 80.8078 83.2693 81.0469 80.818 81.2063C77.2211 81.4719 74.5567 82.9861 73.1712 86.4129C72.7449 87.4755 72.2919 88.5646 71.7857 89.6006C70.9331 91.3539 70.1604 93.1602 69.1213 94.8072C67.8424 96.8261 65.9507 97.384 63.6593 96.6136C62.6468 96.2683 61.6876 95.8167 60.7551 95.312C58.6236 94.1431 56.572 92.8946 54.4405 91.7258C52.1491 90.5038 49.8044 90.4772 47.4864 91.6992C46.1009 92.4164 44.7953 93.2399 43.3832 93.9572C41.4648 94.9401 39.5731 95.9495 37.5748 96.7464C36.0561 97.3308 34.5374 96.8793 33.4983 95.6573C32.5924 94.5947 31.8197 93.3728 31.1802 92.0977C30.0345 89.8131 29.1287 87.4489 27.983 85.1644C27.0504 83.2517 25.4518 82.0032 23.3203 81.6313C21.8548 81.3657 20.3628 81.2328 18.8974 81.0203C16.6859 80.7015 14.4212 80.489 12.2364 79.9843C10.4246 79.5593 9.22558 78.2842 8.98578 76.3716C8.85256 75.4418 8.87921 74.4323 9.06572 73.5026C9.51866 70.979 10.1048 68.4554 10.6377 65.9317C11.2505 63.0362 10.6644 60.486 8.42626 58.414C7.52036 57.5905 6.58782 56.7936 5.68193 55.9435C4.13658 54.4294 2.458 52.9949 1.07252 51.3213C-0.392905 49.5415 -0.312973 47.5226 1.04587 45.6365C1.65868 44.7865 2.37807 43.9896 3.15075 43.2723C4.80268 41.7316 6.53454 40.2705 8.21311 38.7829C10.6111 36.6578 11.3038 34.0279 10.6111 30.9464C10.0515 28.476 9.43873 25.9789 9.06572 23.4818C8.4529 19.6034 9.46538 17.3986 13.7018 16.6017C16.1264 16.1501 18.6309 15.9907 21.1088 15.7782C24.5725 15.486 27.2103 14.1046 28.5958 10.7841C28.8889 10.12 29.1819 9.45585 29.5017 8.79174C30.5941 6.53376 31.5799 4.1961 32.8588 2.07094C34.0045 0.184873 35.8962 -0.346415 38.0011 0.317695C39.0935 0.663032 40.1593 1.16776 41.1717 1.72561C43.3033 2.86788 45.3549 4.14297 47.4864 5.28524C49.7778 6.53376 52.1491 6.48063 54.4405 5.25867C55.8259 4.54143 57.1315 3.69137 58.517 3.0007C60.4087 2.04438 62.2738 1.03493 64.2188 0.264566C65.7642 -0.346415 67.3095 0.131744 68.3753 1.38027C69.2812 2.41628 70.0272 3.63824 70.64 4.86021C71.7857 7.14474 72.7182 9.50898 73.8106 11.7935C74.6899 13.5999 76.1553 14.875 78.1536 15.2734C79.699 15.5922 81.2976 15.725 82.8696 15.9641C85.0811 16.2829 87.3458 16.4954 89.5306 17.0001C91.3424 17.3986 92.568 18.6737 92.8078 20.5863C92.941 21.5161 92.9144 22.5255 92.7545 23.4553C92.3549 25.6336 91.9019 27.8118 91.3424 29.937C90.3033 33.9217 91.2625 37.1891 94.593 39.6861C94.6463 39.7393 94.6995 39.7658 94.7528 39.8189C97.5238 42.3426 100.988 44.3083 102 48.293ZM46.767 52.0917C46.6071 52.0651 46.4473 52.012 46.2874 51.9854C46.0742 51.6932 45.8611 51.3745 45.6213 51.1354C43.17 48.6649 40.6922 46.221 38.2143 43.7505C36.8288 42.3691 35.1768 41.6253 33.1785 41.9441C30.8072 42.316 29.1553 43.6442 28.4359 45.9553C27.7165 48.2664 28.3826 50.2588 30.0878 51.9323C34.1111 55.9435 38.1077 59.9548 42.1309 63.9394C44.7687 66.5427 48.0725 66.6755 50.7103 64.0988C57.8242 57.0858 64.8849 50.0197 71.9456 42.9801C72.1054 42.8207 72.2653 42.6348 72.3985 42.4488C74.6366 39.7924 74.0771 35.8609 71.1729 33.9482C68.7483 32.3544 65.8974 32.7262 63.6593 34.9577C58.2772 40.2971 52.8951 45.6897 47.513 51.0557C47.1933 51.3213 47.0068 51.7198 46.767 52.0917Z" fill="#30AFD7"/>
</svg>
