<svg width="24" height="16" viewBox="0 0 24 16" fill="none" xmlns="http://www.w3.org/2000/svg">
<path d="M19.4006 9.69998C17.9006 9.69998 16.6006 8.49997 16.6006 6.89997C16.6006 5.29997 17.8006 4.09998 19.4006 4.09998C21.0006 4.09998 22.2006 5.29997 22.2006 6.89997C22.2006 8.49997 20.9006 9.69998 19.4006 9.69998ZM19.4006 5.69998C18.7006 5.69998 18.1006 6.29998 18.1006 6.99998C18.1006 7.69998 18.7006 8.29998 19.4006 8.29998C20.1006 8.29998 20.7006 7.69998 20.7006 6.99998C20.7006 6.29998 20.1006 5.69998 19.4006 5.69998Z" fill="#323232"/>
<path d="M12.0006 7.99999C9.90059 7.99999 8.10059 6.29999 8.10059 4.09999C8.10059 1.89999 9.90059 0.299988 12.0006 0.299988C14.1006 0.299988 15.9006 1.99999 15.9006 4.19999C15.9006 6.39999 14.1006 7.99999 12.0006 7.99999ZM12.0006 1.79999C10.7006 1.79999 9.60059 2.89999 9.60059 4.19999C9.60059 5.49999 10.7006 6.59999 12.0006 6.59999C13.3006 6.59999 14.4006 5.49999 14.4006 4.19999C14.4006 2.89999 13.3006 1.79999 12.0006 1.79999Z" fill="#323232"/>
<path d="M4.5998 9.69998C3.0998 9.69998 1.7998 8.49997 1.7998 6.89997C1.7998 5.29997 2.9998 4.09998 4.5998 4.09998C6.1998 4.09998 7.39981 5.39998 7.39981 6.99998C7.39981 8.59998 6.1998 9.69998 4.5998 9.69998ZM4.5998 5.69998C3.8998 5.69998 3.2998 6.29998 3.2998 6.99998C3.2998 7.69998 3.8998 8.29998 4.5998 8.29998C5.2998 8.29998 5.89981 7.69998 5.89981 6.99998C5.89981 6.29998 5.2998 5.69998 4.5998 5.69998Z" fill="#323232"/>
<path d="M22.9998 15.8C22.5998 15.8 22.1998 15.5 22.1998 15V13.9C22.1998 12.9 21.3998 12.1 20.3998 12.1H19.5998C19.1998 12.1 18.7998 11.8 18.7998 11.3C18.7998 10.8 19.0998 10.5 19.5998 10.5H20.3998C22.1998 10.5 23.6998 12 23.6998 13.8V15C23.7998 15.4 23.3998 15.8 22.9998 15.8Z" fill="#323232"/>
<path d="M1.0002 15.8C0.600195 15.8 0.200195 15.5 0.200195 15V13.9C0.200195 12.1 1.7002 10.6 3.5002 10.6H4.3002C4.7002 10.6 5.1002 10.9 5.1002 11.4C5.1002 11.9 4.8002 12.2 4.3002 12.2H3.5002C2.5002 12.2 1.7002 13 1.7002 14V15C1.8002 15.4 1.4002 15.8 1.0002 15.8Z" fill="#323232"/>
<path d="M17.3004 15.8C16.9004 15.8 16.5004 15.5 16.5004 15V13.4C16.5004 11.9 15.3004 10.6 13.7004 10.6H10.0004C8.50039 10.6 7.20039 11.8 7.20039 13.4V15C7.20039 15.4 6.90039 15.8 6.40039 15.8C5.90039 15.8 5.90039 15.4 5.90039 15V13.4C5.90039 11.1 7.80039 9.09998 10.2004 9.09998H13.9004C16.2004 9.09998 18.2004 11 18.2004 13.4V15C18.1004 15.4 17.8004 15.8 17.3004 15.8Z" fill="#323232"/>
</svg>
