<svg width="21" height="18" viewBox="0 0 21 18" fill="none" xmlns="http://www.w3.org/2000/svg">
<path d="M20.0003 17.8C19.6003 17.8 19.2003 17.5 19.2003 17C19.2003 15 17.5003 13.3 15.5003 13.3H10.4003C8.40029 13.3 6.70029 15 6.70029 17C6.70029 17.4 6.40029 17.8 5.90029 17.8C5.40029 17.8 5.30029 17.4 5.30029 17C5.30029 14.1 7.60029 11.8 10.5003 11.8H15.6003C18.5003 11.8 20.8003 14.1 20.8003 17C20.8003 17.4 20.4003 17.8 20.0003 17.8Z" fill="#323232"/>
<path d="M13 10.2C10.3 10.2 8 7.99999 8 5.19999C8 2.39999 10.2 0.299988 13 0.299988C15.8 0.299988 18 2.49999 18 5.19999C18 7.89999 15.7 10.2 13 10.2ZM13 1.79999C11.1 1.79999 9.5 3.29999 9.5 5.19999C9.5 7.09999 11 8.69999 13 8.69999C15 8.69999 16.5 7.19999 16.5 5.19999C16.5 3.19999 14.9 1.79999 13 1.79999Z" fill="#323232"/>
<path d="M5.5002 8.29998H4.3002V6.99998C4.3002 6.59998 4.0002 6.19998 3.5002 6.19998C3.0002 6.19998 2.8002 6.59998 2.8002 6.99998V8.29998H1.5002C1.1002 8.29998 0.700195 8.59998 0.700195 9.09998C0.700195 9.59998 1.0002 9.89998 1.5002 9.89998H2.8002V11C2.8002 11.4 3.1002 11.8 3.6002 11.8C4.1002 11.8 4.4002 11.5 4.4002 11V9.69998H5.7002C6.1002 9.69998 6.5002 9.39998 6.5002 8.89998C6.5002 8.39998 5.9002 8.29998 5.5002 8.29998Z" fill="#323232"/>
</svg>
